<?xml version="1.0" encoding="UTF-8"?>
<svg width="1024px" height="940px" viewBox="0 0 1024 940" version="1.1" xmlns="http://www.w3.org/2000/svg" xmlns:xlink="http://www.w3.org/1999/xlink">
    <title>Group</title>
    <g id="Page-1" stroke="none" stroke-width="1" fill="none" fill-rule="evenodd" opacity="0.4">
        <g id="Onepager" transform="translate(-417.000000, -7880.000000)" fill="#1D5CB2">
            <g id="Group" transform="translate(417.000000, 7880.000000)">
                <path d="M432.413017,638.104851 L432.413017,606.920753 L275.034434,631.017556 C226.828381,638.104851 188.547104,665.036573 188.547104,718.900016 C188.547104,760.006328 218.321431,799.695181 279.287909,799.695181 C358.686113,799.695181 432.413017,761.423787 432.413017,638.104851 M208.420286,519.038293 L379.953489,493.52403 C419.652591,487.877819 432.413017,468.009768 432.413017,443.912964 C432.413017,394.325523 394.13174,353.195587 314.733536,353.195587 C232.499681,353.195587 187.129279,405.641571 181.457979,466.592309 L14.1782507,431.155833 C25.5208513,322.011488 126.186431,201.551095 313.31571,201.551095 C534.496422,201.551095 616.730276,326.287489 616.730276,466.592309 L616.730276,809.617394 C616.730276,846.447704 620.960121,896.082394 625.237226,920.155574 L452.262568,920.155574 C448.009092,901.728606 445.173442,863.480837 445.173442,836.525491 C409.727815,891.806393 343.090037,940 239.588807,940 C90.7408046,940 0,839.384033 0,730.216064 C0,605.503294 92.1586297,536.047801 208.420286,519.038293" id="Fill-1" opacity="0.5"></path>
                <path d="M797.702476,168.744816 L797.820596,168.744816 C797.820596,168.744816 796.733892,169.666531 795.009341,171.202723 L788.276505,177.252958 C736.445478,225.016721 486.267456,476.999526 451.989051,920.273723 L654.659235,920.273723 C695.788596,456.603619 953.738909,222.629715 1023.19343,163.072721 L1023.19343,0 L984.308348,0 L797.702476,168.744816 Z" id="Fill-3"></path>
                <polygon id="Fill-6" points="324.19708 0 324.19708 168.959854 572.40126 168.959854 759.032847 0"></polygon>
            </g>
        </g>
    </g>
</svg>