<?xml version="1.0" encoding="UTF-8"?>
<svg width="194px" height="38px" viewBox="0 0 194 38" version="1.1" xmlns="http://www.w3.org/2000/svg" xmlns:xlink="http://www.w3.org/1999/xlink">
    <title>Group 36</title>
    <g id="Page-1" stroke="none" stroke-width="1" fill="none" fill-rule="evenodd">
        <g id="Onepager" transform="translate(-950.000000, -3019.000000)" fill-rule="nonzero">
            <g id="Group-36" transform="translate(950.000000, 3019.562500)">
                <g id="App" transform="translate(123.976562, 0.000000)" fill="#FFFFFF">
                    <path d="M6.81640625,18.4960938 L17.8710938,18.4960938 C16.0351562,13.2356771 14.1861979,8.01432292 12.3242188,2.83203125 C11.6080729,4.87630208 10.5729167,7.82552083 9.21875,11.6796875 C7.86458333,15.5338542 7.06380208,17.8059896 6.81640625,18.4960938 Z M0,28.4375 L10.6835938,0 L13.984375,0 L24.7070312,28.4375 L21.5625,28.4375 L18.7109375,20.7421875 L6.03515625,20.7421875 L3.203125,28.4375 L0,28.4375 Z" id="Shape"></path>
                    <path d="M37.0625,26.640625 C39.1328125,26.640625 40.7376302,25.9016927 41.8769531,24.4238281 C43.016276,22.9459635 43.5859375,20.9570312 43.5859375,18.4570312 C43.5859375,15.9440104 43.016276,13.9420573 41.8769531,12.4511719 C40.7376302,10.9602865 39.1393229,10.2148438 37.0820312,10.2148438 C34.9205729,10.2148438 33.2115885,10.999349 31.9550781,12.5683594 C30.6985677,14.1373698 30.0703125,16.1914062 30.0703125,18.7304688 C30.0703125,21.1653646 30.6920573,23.0924479 31.9355469,24.5117188 C33.1790365,25.9309896 34.8880208,26.640625 37.0625,26.640625 Z M27.375,37.4023438 L27.375,13.9257812 C27.375,12.7669271 27.3164062,10.9244792 27.1992188,8.3984375 L30.0507812,8.3984375 L30.109375,12.5976562 C30.578125,11.2695312 31.4863281,10.1627604 32.8339844,9.27734375 C34.1816406,8.39192708 35.7018229,7.94921875 37.3945312,7.94921875 C40.1289062,7.94921875 42.3164062,8.91276042 43.9570312,10.8398438 C45.5976562,12.7669271 46.4179688,15.2864583 46.4179688,18.3984375 C46.4179688,21.5234375 45.594401,24.0559896 43.9472656,25.9960938 C42.3001302,27.9361979 40.1028646,28.90625 37.3554688,28.90625 C35.6627604,28.90625 34.155599,28.5188802 32.8339844,27.7441406 C31.5123698,26.969401 30.6106771,25.9700521 30.1289062,24.7460938 L30.1289062,37.4023438 L27.375,37.4023438 Z" id="Shape"></path>
                    <path d="M59.7304688,26.640625 C61.8007812,26.640625 63.405599,25.9016927 64.5449219,24.4238281 C65.6842448,22.9459635 66.2539062,20.9570312 66.2539062,18.4570312 C66.2539062,15.9440104 65.6842448,13.9420573 64.5449219,12.4511719 C63.405599,10.9602865 61.8072917,10.2148438 59.75,10.2148438 C57.5885417,10.2148438 55.8795573,10.999349 54.6230469,12.5683594 C53.3665365,14.1373698 52.7382812,16.1914062 52.7382812,18.7304688 C52.7382812,21.1653646 53.360026,23.0924479 54.6035156,24.5117188 C55.8470052,25.9309896 57.5559896,26.640625 59.7304688,26.640625 Z M50.0429688,37.4023438 L50.0429688,13.9257812 C50.0429688,12.7669271 49.984375,10.9244792 49.8671875,8.3984375 L52.71875,8.3984375 L52.7773438,12.5976562 C53.2460938,11.2695312 54.1542969,10.1627604 55.5019531,9.27734375 C56.8496094,8.39192708 58.3697917,7.94921875 60.0625,7.94921875 C62.796875,7.94921875 64.984375,8.91276042 66.625,10.8398438 C68.265625,12.7669271 69.0859375,15.2864583 69.0859375,18.3984375 C69.0859375,21.5234375 68.2623698,24.0559896 66.6152344,25.9960938 C64.968099,27.9361979 62.7708333,28.90625 60.0234375,28.90625 C58.3307292,28.90625 56.8235677,28.5188802 55.5019531,27.7441406 C54.1803385,26.969401 53.2786458,25.9700521 52.796875,24.7460938 L52.796875,37.4023438 L50.0429688,37.4023438 Z" id="Shape"></path>
                </g>
                <g id="arVisor" transform="translate(-0.000000, 0.437500)">
                    <path d="M9.91983773,29.52 C11.2903854,29.52 12.5112373,29.1973225 13.5823935,28.5519675 C14.6535497,27.9066126 15.4951724,27.0516836 16.1072617,25.9871805 L16.1072617,25.9871805 L16.1072617,29.0609331 L20.558215,29.0609331 L20.558215,8.58255578 L16.1870994,8.58255578 L16.1870994,11.2571197 C15.5483976,10.2857606 14.6967951,9.51066937 13.6322921,8.93184584 C12.567789,8.35302231 11.3569168,8.06361055 9.99967546,8.06361055 C8.44283976,8.06361055 7.02239351,8.36300203 5.73833671,8.96178499 C4.45427992,9.56056795 3.39975659,10.3655984 2.57476673,11.3768763 C1.74977688,12.3881542 1.11440162,13.5458012 0.668640974,14.8498174 C0.222880325,16.1538337 0,17.5243813 0,18.9614604 C0,20.3320081 0.209574037,21.6393509 0.62872211,22.8834888 C1.04787018,24.1276268 1.65663286,25.2486815 2.45501014,26.2466531 C3.25338742,27.2446247 4.29793103,28.0396755 5.58864097,28.6318053 C6.87935091,29.2239351 8.32308316,29.52 9.91983773,29.52 Z M10.5385801,25.8873834 C8.52933063,25.8873834 7.01574037,25.2287221 5.99780933,23.9113996 C4.9798783,22.5940771 4.47091278,20.8842191 4.47091278,18.7818256 C4.47091278,16.6395132 4.97655172,14.9196755 5.98782961,13.6223124 C6.99910751,12.3249493 8.49606491,11.6762677 10.4787018,11.6762677 C12.4081136,11.6762677 13.8684787,12.3216227 14.8597972,13.6123327 C15.8511156,14.9030426 16.3467748,16.6129006 16.3467748,18.7419067 C16.3467748,20.9108316 15.8677485,22.6439757 14.9096957,23.9413387 C13.951643,25.2387018 12.4946045,25.8873834 10.5385801,25.8873834 Z M28.3304178,29.0609331 L28.3304178,17.5443408 C28.3304178,15.7346856 28.7761785,14.3408519 29.6676998,13.3628398 C30.5592211,12.3848276 31.7301744,11.8958215 33.1805598,11.8958215 C34.0055497,11.8958215 34.803927,12.0288844 35.5756917,12.2950101 L35.5756917,12.2950101 L35.5756917,8.36300203 C34.8571521,8.16340771 34.1652252,8.06361055 33.4999108,8.06361055 C31.4906613,8.06361055 29.7475375,9.20129817 28.2705396,11.4766734 L28.2705396,11.4766734 L28.2705396,8.58255578 L23.5201947,8.58255578 L23.6000325,9.44081136 C23.6532576,10.0129817 23.7064828,10.7248682 23.7597079,11.5764706 C23.8129331,12.428073 23.8395456,13.1333063 23.8395456,13.6921704 L23.8395456,13.6921704 L23.8395456,29.0609331 L28.3304178,29.0609331 Z" id="ar" fill="#FFFFFF"></path>
                    <path d="M49.2958053,29.0609331 L60.2535335,0 L55.4033915,0 C50.4667586,13.7720081 47.6857444,21.5096146 47.0603489,23.2128195 C45.9426207,20.1789858 44.3425396,15.6980933 42.2601055,9.77014199 C40.1776714,3.84219067 39.0300041,0.585476673 38.8171034,0 L38.8171034,0 L33.6476105,0 L44.665217,29.0609331 L49.2958053,29.0609331 Z M64.9919026,3.99188641 L64.9919026,0 L60.6407465,0 L60.6407465,3.99188641 L64.9919026,3.99188641 Z M64.9919026,29.0609331 L64.9919026,8.58255578 L60.620787,8.58255578 L60.620787,29.0609331 L64.9919026,29.0609331 Z M75.4985477,29.52 C76.4166815,29.52 77.29157,29.4102231 78.123213,29.1906694 C78.954856,28.9711156 79.7366004,28.6318053 80.4684462,28.1727383 C81.2002921,27.7136714 81.7824422,27.0683164 82.2148966,26.2366734 C82.6473509,25.4050304 82.8635781,24.4303448 82.8635781,23.3126166 C82.8635781,22.5541582 82.7671075,21.8821907 82.5741663,21.296714 C82.3812252,20.7112373 82.1383854,20.2189047 81.8456471,19.819716 C81.5529087,19.4205274 81.1437404,19.0479513 80.618142,18.7019878 C80.0925436,18.3560243 79.5835781,18.0732657 79.0912454,17.853712 C78.5989128,17.6341582 77.9668641,17.3913185 77.1950994,17.1251927 C77.1152617,17.0985801 76.7726247,16.9788235 76.1671886,16.7659229 C75.5617525,16.5530223 75.2324219,16.4399189 75.1791968,16.4266126 C73.7554239,15.9209736 72.8339635,15.5084787 72.4148154,15.1891278 C71.9956673,14.8697769 71.7860933,14.3907505 71.7860933,13.7520487 C71.7860933,12.3415822 72.9636998,11.6363489 75.3189128,11.6363489 C76.2237404,11.6363489 77.1917728,11.7893712 78.2230101,12.0954158 C79.2542475,12.4014604 80.1224828,12.7407708 80.827716,13.1133469 L80.827716,13.1133469 L82.0252819,9.99967546 C81.1470669,9.42750507 80.0825639,8.96843813 78.8317728,8.62247465 C77.5809817,8.27651116 76.2636592,8.10352941 74.8798053,8.10352941 C73.89514,8.10352941 72.9703529,8.21330629 72.1054442,8.43286004 C71.2405355,8.65241379 70.4488114,8.98507099 69.7302718,9.43083164 C69.0117323,9.87659229 68.446215,10.4820284 68.0337201,11.24714 C67.6212252,12.0122515 67.4149777,12.9004462 67.4149777,13.9117241 C67.4149777,14.7899391 67.544714,15.5483976 67.8041866,16.1870994 C68.0636592,16.8258012 68.4661744,17.3647059 69.0117323,17.8038134 C69.5572901,18.2429209 70.1161542,18.6021907 70.6883245,18.8816227 C71.2604949,19.1610548 71.9989939,19.4537931 72.9038215,19.7598377 L72.9038215,19.7598377 L74.819927,20.418499 C76.4166815,20.9640568 77.4612252,21.4197972 77.9535578,21.7857201 C78.4458905,22.151643 78.6920568,22.6672617 78.6920568,23.3325761 C78.6920568,25.0756998 77.5077972,25.9472617 75.1392779,25.9472617 C73.9550183,25.9472617 72.744146,25.7277079 71.5066613,25.2886004 C70.2691765,24.8494929 69.2445923,24.3238945 68.4329087,23.7118053 L68.4329087,23.7118053 L67.2752617,26.9851521 C68.1002515,27.6371602 69.231286,28.2226369 70.6683651,28.7415822 C72.1054442,29.2605274 73.7155051,29.52 75.4985477,29.52 Z M94.3482353,29.52 C96.0381339,29.52 97.5650304,29.240568 98.9289249,28.6817039 C100.292819,28.1228398 101.403895,27.3544016 102.26215,26.3763895 C103.120406,25.3983773 103.779067,24.2706694 104.238134,22.9932657 C104.697201,21.7158621 104.926734,20.3386613 104.926734,18.8616633 C104.926734,17.3048276 104.703854,15.8777282 104.258093,14.5803651 C103.812333,13.283002 103.163651,12.1453144 102.312049,11.1673022 C101.460446,10.1892901 100.356024,9.42750507 98.998783,8.88194726 C97.6415416,8.33638945 96.0980122,8.06361055 94.3681947,8.06361055 C92.1061258,8.06361055 90.153428,8.54263692 88.5101014,9.50068966 C86.8667748,10.4587424 85.6459229,11.7394726 84.8475456,13.3428803 C84.0491684,14.946288 83.6499797,16.7725761 83.6499797,18.8217444 C83.6499797,20.325355 83.8795132,21.7191886 84.3385801,23.0032454 C84.7976471,24.2873022 85.4629615,25.4150101 86.3345233,26.3863692 C87.2060852,27.3577282 88.3304665,28.1228398 89.7076673,28.6817039 C91.0848682,29.240568 92.6317241,29.52 94.3482353,29.52 Z M94.3282759,25.8873834 C92.3456389,25.8873834 90.8486815,25.2287221 89.8374037,23.9113996 C88.8261258,22.5940771 88.3204868,20.8908722 88.3204868,18.801785 C88.3204868,16.6860852 88.8327789,14.969574 89.8573631,13.6522515 C90.8819473,12.334929 92.3655984,11.6762677 94.3083164,11.6762677 C96.2510345,11.6762677 97.7280325,12.334929 98.7393103,13.6522515 C99.7505882,14.969574 100.256227,16.6860852 100.256227,18.801785 C100.256227,20.8908722 99.760568,22.5940771 98.7692495,23.9113996 C97.777931,25.2287221 96.2976065,25.8873834 94.3282759,25.8873834 Z M111.780803,29.0609331 L111.780803,17.5443408 C111.780803,15.7346856 112.226564,14.3408519 113.118085,13.3628398 C114.009606,12.3848276 115.18056,11.8958215 116.630945,11.8958215 C117.455935,11.8958215 118.254312,12.0288844 119.026077,12.2950101 L119.026077,12.2950101 L119.026077,8.36300203 C118.307538,8.16340771 117.615611,8.06361055 116.950296,8.06361055 C114.941047,8.06361055 113.197923,9.20129817 111.720925,11.4766734 L111.720925,11.4766734 L111.720925,8.58255578 L106.97058,8.58255578 L107.050418,9.44081136 C107.103643,10.0129817 107.156868,10.7248682 107.210093,11.5764706 C107.263318,12.428073 107.289931,13.1333063 107.289931,13.6921704 L107.289931,13.6921704 L107.289931,29.0609331 L111.780803,29.0609331 Z" id="Visor" fill="#181922"></path>
                </g>
            </g>
        </g>
    </g>
</svg>