<?xml version="1.0" encoding="UTF-8"?>
<svg width="127px" height="234px" viewBox="0 0 127 234" version="1.1" xmlns="http://www.w3.org/2000/svg" xmlns:xlink="http://www.w3.org/1999/xlink">
    <title>Group 20</title>
    <g id="Page-1" stroke="none" stroke-width="1" fill="none" fill-rule="evenodd">
        <g id="Onepager" transform="translate(-1056.000000, -3317.000000)">
            <g id="Group-20" transform="translate(1058.000000, 3319.000000)">
                <g id="Group-2" fill="#2D2F3B" stroke="#A4AFCC">
                    <path d="M-23.3928571,53.3928571 L146.607143,53.3928571 C163.175685,53.3928571 176.607143,66.8243146 176.607143,83.3928571 L176.607143,146.607143 C176.607143,163.175685 163.175685,176.607143 146.607143,176.607143 L-23.3928571,176.607143 C-39.9613996,176.607143 -53.3928571,163.175685 -53.3928571,146.607143 L-53.3928571,83.3928571 C-53.3928571,66.8243146 -39.9613996,53.3928571 -23.3928571,53.3928571 Z" id="Rectangle" stroke-width="3" transform="translate(61.607143, 115.000000) rotate(90.000000) translate(-61.607143, -115.000000) "></path>
                    <rect id="Rectangle" stroke-width="2" x="53.3928571" y="197.142857" width="16.3378058" height="16.3378058" rx="3"></rect>
                    <rect id="Rectangle" stroke-width="2" x="41.0714286" y="16.4285714" width="41.0714286" height="1" rx="0.5"></rect>
                </g>
                <g id="Consumers-mobile-app" transform="translate(27.815500, 101.507000)" fill="#2D7BE7" fill-rule="nonzero">
                    <path d="M4.907,10.626 C4.14633333,10.626 3.46383333,10.5291667 2.8595,10.3355 C2.25516667,10.1418333 1.7395,9.835 1.3125,9.415 C0.8855,8.995 0.56,8.449 0.336,7.777 C0.112,7.105 0,6.29066667 0,5.334 C0,4.102 0.198333333,3.09283333 0.595,2.3065 C0.991666667,1.52016667 1.5645,0.939166667 2.3135,0.5635 C3.0625,0.187833333 3.96433333,0 5.019,0 C5.41566667,0 5.79833333,0.0233333333 6.167,0.07 C6.53566667,0.116666667 6.89733333,0.189 7.252,0.287 L7.252,1.547 C6.89733333,1.449 6.54383333,1.37666667 6.1915,1.33 C5.83916667,1.28333333 5.47633333,1.26 5.103,1.26 C4.32833333,1.26 3.6785,1.39183333 3.1535,1.6555 C2.6285,1.91916667 2.23066667,2.34733333 1.96,2.94 C1.68933333,3.53266667 1.554,4.32133333 1.554,5.306 C1.554,6.32333333 1.6905,7.12716667 1.9635,7.7175 C2.2365,8.30783333 2.63083333,8.73016667 3.1465,8.9845 C3.66216667,9.23883333 4.28866667,9.366 5.026,9.366 C5.39933333,9.366 5.7645,9.33683333 6.1215,9.2785 C6.4785,9.22016667 6.85533333,9.12566667 7.252,8.995 L7.252,10.255 C6.91133333,10.3716667 6.54266667,10.4626667 6.146,10.528 C5.74933333,10.5933333 5.33633333,10.626 4.907,10.626 Z" id="Path"></path>
                    <path d="M11.228,10.633 C10.542,10.633 9.94583333,10.493 9.4395,10.213 C8.93316667,9.933 8.54,9.50366667 8.26,8.925 C7.98,8.34633333 7.84,7.60433333 7.84,6.699 C7.84,5.789 7.97766667,5.04466667 8.253,4.466 C8.52833333,3.88733333 8.91916667,3.458 9.4255,3.178 C9.93183333,2.898 10.5326667,2.758 11.228,2.758 C11.9233333,2.758 12.5241667,2.898 13.0305,3.178 C13.5368333,3.458 13.9276667,3.88733333 14.203,4.466 C14.4783333,5.04466667 14.616,5.78666667 14.616,6.692 C14.616,7.59266667 14.4771667,8.33466667 14.1995,8.918 C13.9218333,9.50133333 13.5286667,9.933 13.02,10.213 C12.5113333,10.493 11.914,10.633 11.228,10.633 Z M11.228,9.478 C11.62,9.478 11.9583333,9.39283333 12.243,9.2225 C12.5276667,9.05216667 12.747,8.76516667 12.901,8.3615 C13.055,7.95783333 13.132,7.406 13.132,6.706 C13.132,5.99666667 13.055,5.439 12.901,5.033 C12.747,4.627 12.5276667,4.33883333 12.243,4.1685 C11.9583333,3.99816667 11.62,3.913 11.228,3.913 C10.836,3.913 10.4976667,3.997 10.213,4.165 C9.92833333,4.333 9.709,4.61883333 9.555,5.0225 C9.401,5.42616667 9.324,5.978 9.324,6.678 C9.324,7.38733333 9.39983333,7.945 9.5515,8.351 C9.70316667,8.757 9.9225,9.04633333 10.2095,9.219 C10.4965,9.39166667 10.836,9.478 11.228,9.478 Z" id="Shape"></path>
                    <path d="M16.205,10.493 L16.205,2.877 L17.423,2.877 L17.528,3.71 L17.612,3.71 C17.9106667,3.402 18.2618333,3.16633333 18.6655,3.003 C19.0691667,2.83966667 19.4973333,2.758 19.95,2.758 C20.4353333,2.758 20.8658333,2.849 21.2415,3.031 C21.6171667,3.213 21.9123333,3.50816667 22.127,3.9165 C22.3416667,4.32483333 22.449,4.86966667 22.449,5.551 L22.449,10.493 L20.986,10.493 L20.986,5.628 C20.986,5.03066667 20.8576667,4.6165 20.601,4.3855 C20.3443333,4.1545 19.9943333,4.039 19.551,4.039 C19.3456667,4.039 19.1286667,4.06933333 18.9,4.13 C18.6713333,4.19066667 18.4496667,4.28633333 18.235,4.417 C18.0203333,4.54766667 17.8313333,4.72033333 17.668,4.935 L17.668,10.493 L16.205,10.493 Z" id="Path"></path>
                    <path d="M26.292,10.633 C25.8953333,10.633 25.5126667,10.6061667 25.144,10.5525 C24.7753333,10.4988333 24.4206667,10.4206667 24.08,10.318 L24.08,9.191 C24.4533333,9.29833333 24.8208333,9.37883333 25.1825,9.4325 C25.5441667,9.48616667 25.9116667,9.513 26.285,9.513 C26.8963333,9.513 27.3361667,9.415 27.6045,9.219 C27.8728333,9.023 28.007,8.74766667 28.007,8.393 C28.007,8.09433333 27.93,7.86683333 27.776,7.7105 C27.622,7.55416667 27.3583333,7.43633333 26.985,7.357 L25.893,7.14 C25.1883333,6.99533333 24.6831667,6.74916667 24.3775,6.4015 C24.0718333,6.05383333 23.919,5.59766667 23.919,5.033 C23.919,4.36566667 24.1815,3.81966667 24.7065,3.395 C25.2315,2.97033333 26.0353333,2.758 27.118,2.758 C27.454,2.758 27.7806667,2.77783333 28.098,2.8175 C28.4153333,2.85716667 28.7116667,2.91433333 28.987,2.989 L28.987,4.116 C28.6836667,4.032 28.3826667,3.97133333 28.084,3.934 C27.7853333,3.89666667 27.475,3.878 27.153,3.878 C26.6863333,3.878 26.3188333,3.92816667 26.0505,4.0285 C25.7821667,4.12883333 25.5908333,4.263 25.4765,4.431 C25.3621667,4.599 25.305,4.788 25.305,4.998 C25.305,5.25466667 25.3785,5.467 25.5255,5.635 C25.6725,5.803 25.9303333,5.929 26.299,6.013 L27.391,6.223 C28.0863333,6.363 28.5938333,6.59983333 28.9135,6.9335 C29.2331667,7.26716667 29.393,7.73266667 29.393,8.33 C29.393,9.03933333 29.1281667,9.6005 28.5985,10.0135 C28.0688333,10.4265 27.3,10.633 26.292,10.633 Z" id="Path"></path>
                    <path d="M33.236,10.619 C32.7553333,10.619 32.3271667,10.5291667 31.9515,10.3495 C31.5758333,10.1698333 31.2806667,9.877 31.066,9.471 C30.8513333,9.065 30.744,8.52366667 30.744,7.847 L30.744,2.877 L32.207,2.877 L32.207,7.763 C32.207,8.35566667 32.3365,8.76633333 32.5955,8.995 C32.8545,9.22366667 33.1916667,9.338 33.607,9.338 C33.8123333,9.338 34.027,9.30766667 34.251,9.247 C34.475,9.18633333 34.692,9.09066667 34.902,8.96 C35.112,8.82933333 35.2986667,8.659 35.462,8.449 L35.462,2.877 L36.918,2.877 L36.918,10.493 L35.7,10.493 L35.602,9.681 L35.525,9.681 C35.217,9.99366667 34.867,10.2281667 34.475,10.3845 C34.083,10.5408333 33.67,10.619 33.236,10.619 Z" id="Path"></path>
                    <path d="M38.892,10.493 L38.892,2.877 L40.11,2.877 L40.215,3.717 L40.299,3.717 C40.5836667,3.39966667 40.9115,3.1605 41.2825,2.9995 C41.6535,2.8385 42.0513333,2.758 42.476,2.758 C42.91,2.758 43.2973333,2.84783333 43.638,3.0275 C43.9786667,3.20716667 44.247,3.49766667 44.443,3.899 C44.639,4.30033333 44.737,4.837 44.737,5.509 L44.737,10.493 L43.302,10.493 L43.302,5.621 C43.302,5.02366667 43.1865,4.61066667 42.9555,4.382 C42.7245,4.15333333 42.4176667,4.039 42.035,4.039 C41.8436667,4.039 41.6453333,4.0705 41.44,4.1335 C41.2346667,4.1965 41.0386667,4.29566667 40.852,4.431 C40.6653333,4.56633333 40.4996667,4.74366667 40.355,4.963 L40.355,10.493 L38.892,10.493 Z M47.635,10.493 L47.635,5.621 C47.635,5.02366667 47.5136667,4.61066667 47.271,4.382 C47.0283333,4.15333333 46.7156667,4.039 46.333,4.039 C46.137,4.039 45.9305,4.07166667 45.7135,4.137 C45.4965,4.20233333 45.2865,4.312 45.0835,4.466 C44.8805,4.62 44.7066667,4.82766667 44.562,5.089 L44.226,4.018 C44.59,3.556 44.9925,3.2305 45.4335,3.0415 C45.8745,2.8525 46.305,2.758 46.725,2.758 C47.1823333,2.758 47.5895,2.849 47.9465,3.031 C48.3035,3.213 48.5835,3.50816667 48.7865,3.9165 C48.9895,4.32483333 49.091,4.86966667 49.091,5.551 L49.091,10.493 L47.635,10.493 Z" id="Shape"></path>
                    <path d="M54.397,10.633 C53.557,10.633 52.8558333,10.4976667 52.2935,10.227 C51.7311667,9.95633333 51.31,9.5305 51.03,8.9495 C50.75,8.3685 50.61,7.61366667 50.61,6.685 C50.61,5.80766667 50.7395,5.0785 50.9985,4.4975 C51.2575,3.9165 51.6273333,3.48133333 52.108,3.192 C52.5886667,2.90266667 53.1626667,2.758 53.83,2.758 C54.4833333,2.758 55.0375,2.90266667 55.4925,3.192 C55.9475,3.48133333 56.2928333,3.91883333 56.5285,4.5045 C56.7641667,5.09016667 56.882,5.82866667 56.882,6.72 L56.882,7.14 L51.422,7.14 L51.422,6.216 L55.783,6.216 L55.503,6.37 C55.503,5.726 55.4376667,5.21266667 55.307,4.83 C55.1763333,4.44733333 54.985,4.17316667 54.733,4.0075 C54.481,3.84183333 54.1753333,3.759 53.816,3.759 C53.4566667,3.759 53.1475,3.84066667 52.8885,4.004 C52.6295,4.16733333 52.43,4.44033333 52.29,4.823 C52.15,5.20566667 52.08,5.72133333 52.08,6.37 L52.08,6.916 C52.08,7.546 52.1663333,8.04883333 52.339,8.4245 C52.5116667,8.80016667 52.7823333,9.06966667 53.151,9.233 C53.5196667,9.39633333 53.998,9.478 54.586,9.478 C54.8753333,9.478 55.1786667,9.4535 55.496,9.4045 C55.8133333,9.3555 56.1446667,9.28433333 56.49,9.191 L56.49,10.339 C56.112,10.4416667 55.7526667,10.5163333 55.412,10.563 C55.0713333,10.6096667 54.733,10.633 54.397,10.633 Z" id="Path"></path>
                    <path d="M58.373,10.493 L58.373,2.877 L59.584,2.877 L59.703,3.885 L59.78,3.885 C60.0273333,3.521 60.3423333,3.248 60.725,3.066 C61.1076667,2.884 61.5136667,2.793 61.943,2.793 C62.055,2.793 62.1623333,2.79766667 62.265,2.807 C62.3676667,2.81633333 62.4633333,2.83033333 62.552,2.849 L62.552,4.186 C62.44,4.16733333 62.3268333,4.1545 62.2125,4.1475 C62.0981667,4.1405 61.9826667,4.137 61.866,4.137 C61.6233333,4.137 61.3748333,4.17316667 61.1205,4.2455 C60.8661667,4.31783333 60.627,4.42633333 60.403,4.571 C60.179,4.71566667 59.99,4.89533333 59.836,5.11 L59.836,10.493 L58.373,10.493 Z" id="Path"></path>
                    <path d="M65.52,10.633 C65.1233333,10.633 64.7406667,10.6061667 64.372,10.5525 C64.0033333,10.4988333 63.6486667,10.4206667 63.308,10.318 L63.308,9.191 C63.6813333,9.29833333 64.0488333,9.37883333 64.4105,9.4325 C64.7721667,9.48616667 65.1396667,9.513 65.513,9.513 C66.1243333,9.513 66.5641667,9.415 66.8325,9.219 C67.1008333,9.023 67.235,8.74766667 67.235,8.393 C67.235,8.09433333 67.158,7.86683333 67.004,7.7105 C66.85,7.55416667 66.5863333,7.43633333 66.213,7.357 L65.121,7.14 C64.4163333,6.99533333 63.9111667,6.74916667 63.6055,6.4015 C63.2998333,6.05383333 63.147,5.59766667 63.147,5.033 C63.147,4.36566667 63.4095,3.81966667 63.9345,3.395 C64.4595,2.97033333 65.2633333,2.758 66.346,2.758 C66.682,2.758 67.0086667,2.77783333 67.326,2.8175 C67.6433333,2.85716667 67.9396667,2.91433333 68.215,2.989 L68.215,4.116 C67.9116667,4.032 67.6106667,3.97133333 67.312,3.934 C67.0133333,3.89666667 66.703,3.878 66.381,3.878 C65.9143333,3.878 65.5468333,3.92816667 65.2785,4.0285 C65.0101667,4.12883333 64.8188333,4.263 64.7045,4.431 C64.5901667,4.599 64.533,4.788 64.533,4.998 C64.533,5.25466667 64.6065,5.467 64.7535,5.635 C64.9005,5.803 65.1583333,5.929 65.527,6.013 L66.619,6.223 C67.3143333,6.363 67.8218333,6.59983333 68.1415,6.9335 C68.4611667,7.26716667 68.621,7.73266667 68.621,8.33 C68.621,9.03933333 68.3561667,9.6005 67.8265,10.0135 C67.2968333,10.4265 66.528,10.633 65.52,10.633 Z" id="Path"></path>
                    <path d="M0.4305,27.493 L0.4305,19.877 L1.6485,19.877 L1.7535,20.717 L1.8375,20.717 C2.12216667,20.3996667 2.45,20.1605 2.821,19.9995 C3.192,19.8385 3.58983333,19.758 4.0145,19.758 C4.4485,19.758 4.83583333,19.8478333 5.1765,20.0275 C5.51716667,20.2071667 5.7855,20.4976667 5.9815,20.899 C6.1775,21.3003333 6.2755,21.837 6.2755,22.509 L6.2755,27.493 L4.8405,27.493 L4.8405,22.621 C4.8405,22.0236667 4.725,21.6106667 4.494,21.382 C4.263,21.1533333 3.95616667,21.039 3.5735,21.039 C3.38216667,21.039 3.18383333,21.0705 2.9785,21.1335 C2.77316667,21.1965 2.57716667,21.2956667 2.3905,21.431 C2.20383333,21.5663333 2.03816667,21.7436667 1.8935,21.963 L1.8935,27.493 L0.4305,27.493 Z M9.1735,27.493 L9.1735,22.621 C9.1735,22.0236667 9.05216667,21.6106667 8.8095,21.382 C8.56683333,21.1533333 8.25416667,21.039 7.8715,21.039 C7.6755,21.039 7.469,21.0716667 7.252,21.137 C7.035,21.2023333 6.825,21.312 6.622,21.466 C6.419,21.62 6.24516667,21.8276667 6.1005,22.089 L5.7645,21.018 C6.1285,20.556 6.531,20.2305 6.972,20.0415 C7.413,19.8525 7.8435,19.758 8.2635,19.758 C8.72083333,19.758 9.128,19.849 9.485,20.031 C9.842,20.213 10.122,20.5081667 10.325,20.9165 C10.528,21.3248333 10.6295,21.8696667 10.6295,22.551 L10.6295,27.493 L9.1735,27.493 Z" id="Shape"></path>
                    <path d="M15.5365,27.633 C14.8505,27.633 14.2543333,27.493 13.748,27.213 C13.2416667,26.933 12.8485,26.5036667 12.5685,25.925 C12.2885,25.3463333 12.1485,24.6043333 12.1485,23.699 C12.1485,22.789 12.2861667,22.0446667 12.5615,21.466 C12.8368333,20.8873333 13.2276667,20.458 13.734,20.178 C14.2403333,19.898 14.8411667,19.758 15.5365,19.758 C16.2318333,19.758 16.8326667,19.898 17.339,20.178 C17.8453333,20.458 18.2361667,20.8873333 18.5115,21.466 C18.7868333,22.0446667 18.9245,22.7866667 18.9245,23.692 C18.9245,24.5926667 18.7856667,25.3346667 18.508,25.918 C18.2303333,26.5013333 17.8371667,26.933 17.3285,27.213 C16.8198333,27.493 16.2225,27.633 15.5365,27.633 Z M15.5365,26.478 C15.9285,26.478 16.2668333,26.3928333 16.5515,26.2225 C16.8361667,26.0521667 17.0555,25.7651667 17.2095,25.3615 C17.3635,24.9578333 17.4405,24.406 17.4405,23.706 C17.4405,22.9966667 17.3635,22.439 17.2095,22.033 C17.0555,21.627 16.8361667,21.3388333 16.5515,21.1685 C16.2668333,20.9981667 15.9285,20.913 15.5365,20.913 C15.1445,20.913 14.8061667,20.997 14.5215,21.165 C14.2368333,21.333 14.0175,21.6188333 13.8635,22.0225 C13.7095,22.4261667 13.6325,22.978 13.6325,23.678 C13.6325,24.3873333 13.7083333,24.945 13.86,25.351 C14.0116667,25.757 14.231,26.0463333 14.518,26.219 C14.805,26.3916667 15.1445,26.478 15.5365,26.478 Z" id="Shape"></path>
                    <path d="M23.0055,27.626 C22.5855,27.626 22.155,27.5956667 21.714,27.535 C21.273,27.4743333 20.8611667,27.3833333 20.4785,27.262 L20.4785,16.181 L21.9415,16.181 L21.9415,20.647 L22.0185,20.647 C22.2471667,20.381 22.5365,20.1663333 22.8865,20.003 C23.2365,19.8396667 23.6355,19.758 24.0835,19.758 C24.6155,19.758 25.1031667,19.884 25.5465,20.136 C25.9898333,20.388 26.3445,20.7905 26.6105,21.3435 C26.8765,21.8965 27.0095,22.628 27.0095,23.538 C27.0095,24.9053333 26.6735,25.9285 26.0015,26.6075 C25.3295,27.2865 24.3308333,27.626 23.0055,27.626 Z M23.1245,26.478 C23.9131667,26.478 24.5105,26.2586667 24.9165,25.82 C25.3225,25.3813333 25.5255,24.6626667 25.5255,23.664 C25.5255,22.9686667 25.4426667,22.4273333 25.277,22.04 C25.1113333,21.6526667 24.8826667,21.3808333 24.591,21.2245 C24.2993333,21.0681667 23.9668333,20.99 23.5935,20.99 C23.2855,20.99 22.9845,21.0506667 22.6905,21.172 C22.3965,21.2933333 22.1468333,21.4823333 21.9415,21.739 L21.9415,26.324 C22.0955,26.366 22.2763333,26.4021667 22.484,26.4325 C22.6916667,26.4628333 22.9051667,26.478 23.1245,26.478 Z" id="Shape"></path>
                    <path d="M28.5635,27.493 L28.5635,19.877 L30.0265,19.877 L30.0265,27.493 L28.5635,27.493 Z M29.2985,18.393 C28.9811667,18.393 28.7408333,18.3183333 28.5775,18.169 C28.4141667,18.0196667 28.3325,17.8143333 28.3325,17.553 C28.3325,17.2823333 28.4141667,17.0723333 28.5775,16.923 C28.7408333,16.7736667 28.9811667,16.699 29.2985,16.699 C29.6205,16.699 29.862,16.7736667 30.023,16.923 C30.184,17.0723333 30.2645,17.2823333 30.2645,17.553 C30.2645,17.8143333 30.184,18.0196667 30.023,18.169 C29.862,18.3183333 29.6205,18.393 29.2985,18.393 Z" id="Shape"></path>
                    <polygon id="Path" points="32.0075 27.493 32.0075 16.181 33.4705 16.181 33.4705 27.493"></polygon>
                    <path d="M38.8465,27.633 C38.0065,27.633 37.3053333,27.4976667 36.743,27.227 C36.1806667,26.9563333 35.7595,26.5305 35.4795,25.9495 C35.1995,25.3685 35.0595,24.6136667 35.0595,23.685 C35.0595,22.8076667 35.189,22.0785 35.448,21.4975 C35.707,20.9165 36.0768333,20.4813333 36.5575,20.192 C37.0381667,19.9026667 37.6121667,19.758 38.2795,19.758 C38.9328333,19.758 39.487,19.9026667 39.942,20.192 C40.397,20.4813333 40.7423333,20.9188333 40.978,21.5045 C41.2136667,22.0901667 41.3315,22.8286667 41.3315,23.72 L41.3315,24.14 L35.8715,24.14 L35.8715,23.216 L40.2325,23.216 L39.9525,23.37 C39.9525,22.726 39.8871667,22.2126667 39.7565,21.83 C39.6258333,21.4473333 39.4345,21.1731667 39.1825,21.0075 C38.9305,20.8418333 38.6248333,20.759 38.2655,20.759 C37.9061667,20.759 37.597,20.8406667 37.338,21.004 C37.079,21.1673333 36.8795,21.4403333 36.7395,21.823 C36.5995,22.2056667 36.5295,22.7213333 36.5295,23.37 L36.5295,23.916 C36.5295,24.546 36.6158333,25.0488333 36.7885,25.4245 C36.9611667,25.8001667 37.2318333,26.0696667 37.6005,26.233 C37.9691667,26.3963333 38.4475,26.478 39.0355,26.478 C39.3248333,26.478 39.6281667,26.4535 39.9455,26.4045 C40.2628333,26.3555 40.5941667,26.2843333 40.9395,26.191 L40.9395,27.339 C40.5615,27.4416667 40.2021667,27.5163333 39.8615,27.563 C39.5208333,27.6096667 39.1825,27.633 38.8465,27.633 Z" id="Path"></path>
                    <path d="M48.2265,27.619 C47.4891667,27.619 46.9116667,27.43 46.494,27.052 C46.0763333,26.674 45.8675,26.1583333 45.8675,25.505 C45.8675,24.8283333 46.0961667,24.2986667 46.5535,23.916 C47.0108333,23.5333333 47.7435,23.2976667 48.7515,23.209 L50.6625,23.02 L50.8095,23.909 L48.8775,24.105 C48.3268333,24.161 47.9313333,24.2928333 47.691,24.5005 C47.4506667,24.7081667 47.3305,24.9986667 47.3305,25.372 C47.3305,25.75 47.4413333,26.0405 47.663,26.2435 C47.8846667,26.4465 48.2101667,26.548 48.6395,26.548 C48.9381667,26.548 49.2368333,26.4873333 49.5355,26.366 C49.8341667,26.2446667 50.1025,26.0416667 50.3405,25.757 L50.3405,22.565 C50.3405,22.1356667 50.2728333,21.802 50.1375,21.564 C50.0021667,21.326 49.7945,21.158 49.5145,21.06 C49.2345,20.962 48.8775,20.913 48.4435,20.913 C48.1541667,20.913 47.8275,20.9386667 47.4635,20.99 C47.0995,21.0413333 46.7401667,21.1253333 46.3855,21.242 L46.3855,20.094 C46.7261667,19.982 47.1018333,19.898 47.5125,19.842 C47.9231667,19.786 48.3081667,19.758 48.6675,19.758 C49.3628333,19.758 49.9403333,19.8478333 50.4,20.0275 C50.8596667,20.2071667 51.2026667,20.507 51.429,20.927 C51.6553333,21.347 51.7685,21.921 51.7685,22.649 L51.7685,27.493 L50.5575,27.493 L50.4525,26.674 L50.3685,26.674 C50.1258333,26.9866667 49.8166667,27.2223333 49.441,27.381 C49.0653333,27.5396667 48.6605,27.619 48.2265,27.619 Z" id="Path"></path>
                    <path d="M53.6725,30.573 L53.6725,19.877 L54.9115,19.877 L55.0095,20.71 L55.0865,20.71 C55.3105,20.4253333 55.5998333,20.1955 55.9545,20.0205 C56.3091667,19.8455 56.7128333,19.758 57.1655,19.758 C57.7161667,19.758 58.2213333,19.8816667 58.681,20.129 C59.1406667,20.3763333 59.5093333,20.7765 59.787,21.3295 C60.0646667,21.8825 60.2035,22.621 60.2035,23.545 C60.2035,24.4503333 60.0541667,25.2051667 59.7555,25.8095 C59.4568333,26.4138333 59.0146667,26.8676667 58.429,27.171 C57.8433333,27.4743333 57.1211667,27.626 56.2625,27.626 C56.0711667,27.626 55.8775,27.6178333 55.6815,27.6015 C55.4855,27.5851667 55.3035,27.5653333 55.1355,27.542 L55.1355,30.573 L53.6725,30.573 Z M56.2765,26.471 C57.0885,26.471 57.6986667,26.2528333 58.107,25.8165 C58.5153333,25.3801667 58.7195,24.6626667 58.7195,23.664 C58.7195,22.9686667 58.6366667,22.4273333 58.471,22.04 C58.3053333,21.6526667 58.0766667,21.3796667 57.785,21.221 C57.4933333,21.0623333 57.1608333,20.983 56.7875,20.983 C56.4841667,20.983 56.1843333,21.0471667 55.888,21.1755 C55.5916667,21.3038333 55.3408333,21.5103333 55.1355,21.795 L55.1355,26.352 C55.2895,26.3893333 55.4691667,26.4185 55.6745,26.4395 C55.8798333,26.4605 56.0805,26.471 56.2765,26.471 Z" id="Shape"></path>
                    <path d="M61.7925,30.573 L61.7925,19.877 L63.0315,19.877 L63.1295,20.71 L63.2065,20.71 C63.4305,20.4253333 63.7198333,20.1955 64.0745,20.0205 C64.4291667,19.8455 64.8328333,19.758 65.2855,19.758 C65.8361667,19.758 66.3413333,19.8816667 66.801,20.129 C67.2606667,20.3763333 67.6293333,20.7765 67.907,21.3295 C68.1846667,21.8825 68.3235,22.621 68.3235,23.545 C68.3235,24.4503333 68.1741667,25.2051667 67.8755,25.8095 C67.5768333,26.4138333 67.1346667,26.8676667 66.549,27.171 C65.9633333,27.4743333 65.2411667,27.626 64.3825,27.626 C64.1911667,27.626 63.9975,27.6178333 63.8015,27.6015 C63.6055,27.5851667 63.4235,27.5653333 63.2555,27.542 L63.2555,30.573 L61.7925,30.573 Z M64.3965,26.471 C65.2085,26.471 65.8186667,26.2528333 66.227,25.8165 C66.6353333,25.3801667 66.8395,24.6626667 66.8395,23.664 C66.8395,22.9686667 66.7566667,22.4273333 66.591,22.04 C66.4253333,21.6526667 66.1966667,21.3796667 65.905,21.221 C65.6133333,21.0623333 65.2808333,20.983 64.9075,20.983 C64.6041667,20.983 64.3043333,21.0471667 64.008,21.1755 C63.7116667,21.3038333 63.4608333,21.5103333 63.2555,21.795 L63.2555,26.352 C63.4095,26.3893333 63.5891667,26.4185 63.7945,26.4395 C63.9998333,26.4605 64.2005,26.471 64.3965,26.471 Z" id="Shape"></path>
                </g>
            </g>
        </g>
    </g>
</svg>