<?xml version="1.0" encoding="UTF-8"?>
<svg width="140px" height="140px" viewBox="0 0 140 140" version="1.1" xmlns="http://www.w3.org/2000/svg" xmlns:xlink="http://www.w3.org/1999/xlink">
    <title>Group 30</title>
    <g id="Page-1" stroke="none" stroke-width="1" fill="none" fill-rule="evenodd">
        <g id="Onepager" transform="translate(-390.000000, -7587.000000)">
            <g id="Group-30" transform="translate(390.000000, 7587.000000)">
                <rect id="Rectangle" fill="#007DFE" opacity="0.3" x="0" y="0" width="140" height="140" rx="50"></rect>
                <rect id="Rectangle" fill="#007DFE" x="10" y="10" width="120" height="120" rx="40"></rect>
                <g id="Group-2" transform="translate(51.000000, 40.000000)" fill="#FFFFFF" fill-rule="nonzero">
                    <path d="M31.5279503,0 L7.22981366,0 C3.23689783,0 0,3.23689783 0,7.22981366 L0,52.7701863 C0,56.7631022 3.23689783,60 7.22981366,60 L31.5279503,60 C35.4771372,59.9389228 38.646435,56.7198454 38.6459627,52.7701863 L38.6459627,7.22981366 C38.646435,3.28015455 35.4771372,0.0610771749 31.5279503,0 Z M35.6273292,52.7701863 C35.6273292,55.0342108 33.7919748,56.8695652 31.5279503,56.8695652 L7.22981366,56.8695652 C4.96578922,56.8695652 3.13043478,55.0342108 3.13043478,52.7701863 L3.13043478,7.22981366 C3.13043478,4.96578922 4.96578922,3.13043478 7.22981366,3.13043478 L9.95031056,3.13043478 C10.0092631,4.38954839 11.0377768,5.38541085 12.2981366,5.40372671 L26.4968944,5.40372671 C27.7427704,5.36611899 28.7495939,4.37553464 28.8074534,3.13043478 L31.5279503,3.13043478 C33.7919748,3.13043478 35.6273292,4.96578922 35.6273292,7.22981366 L35.6273292,52.7701863 Z" id="Shape"></path>
                    <path d="M23.7391304,51.5403727 L15.2049689,51.5403727 C14.3405232,51.5403727 13.6397516,52.2411444 13.6397516,53.1055901 C13.6397516,53.5207115 13.8046579,53.9188307 14.0981931,54.2123659 C14.3917283,54.5059011 14.7898475,54.6708075 15.2049689,54.6708075 L23.7391304,54.6708075 C24.1542519,54.6708075 24.5523711,54.5059011 24.8459063,54.2123659 C25.1394415,53.9188307 25.3043478,53.5207115 25.3043478,53.1055901 C25.3043478,52.2411444 24.6035761,51.5403727 23.7391304,51.5403727 L23.7391304,51.5403727 Z" id="Path"></path>
                    <path d="M19.0807453,39.1677019 L19.0807453,29.1428571 C19.1021349,28.6696105 18.8577455,28.2239594 18.447205,27.9875776 L11.3664596,24.2608696 C10.9712108,24.0325907 10.4837302,24.0345332 10.0903133,24.265955 C9.69689637,24.4973767 9.45835058,24.9225084 9.46583851,25.378882 L9.46583851,35.4409938 C9.47378264,35.906705 9.72946274,36.3328385 10.136646,36.5590062 L17.1801242,40.2857143 C17.575373,40.5139932 18.0628536,40.5120506 18.4562706,40.2806289 C18.8496875,40.0492072 19.0882333,39.6240754 19.0807453,39.1677019 L19.0807453,39.1677019 Z" id="Path"></path>
                    <path d="M27.4658385,24.0372671 L20.4223602,27.7639752 C20.0094649,27.984186 19.7515528,28.4140395 19.7515528,28.8819876 L19.7515528,38.9068323 C19.7440649,39.3632058 19.9826107,39.7883376 20.3760276,40.0197593 C20.7694445,40.251181 21.2569251,40.2531236 21.6521739,40.0248447 L28.7329193,36.2981366 C29.1401025,36.0719689 29.3957826,35.6458354 29.4038154,35.1801242 L29.4038154,25.1925466 C29.4091355,24.7276759 29.1667037,24.2950657 28.7673774,24.0570058 C28.3680512,23.8189459 27.8722002,23.811426 27.4658385,24.0372671 L27.4658385,24.0372671 Z" id="Path"></path>
                    <path d="M11.8136646,23.552795 L18.7826087,27.2795031 C19.1746448,27.5058453 19.6576533,27.5058453 20.0496894,27.2795031 L26.9813665,23.552795 C27.3942618,23.3325842 27.6521739,22.9027307 27.6521739,22.4347826 C27.6521739,21.9668345 27.3942618,21.536981 26.9813665,21.3167702 L20.0124224,17.4409938 C19.6319167,17.2213087 19.1631144,17.2213087 18.7826087,17.4409938 L11.8136646,21.1677019 C11.3418781,21.3767246 11.0376688,21.8442319 11.0376688,22.3602484 C11.0376688,22.876265 11.3418781,23.3437723 11.8136646,23.552795 Z" id="Path"></path>
                </g>
            </g>
        </g>
    </g>
</svg>