<?xml version="1.0" encoding="UTF-8"?>
<svg width="90px" height="90px" viewBox="0 0 90 90" version="1.1" xmlns="http://www.w3.org/2000/svg" xmlns:xlink="http://www.w3.org/1999/xlink">
    <title>Group 11</title>
    <g id="Page-1" stroke="none" stroke-width="1" fill="none" fill-rule="evenodd">
        <g id="Onepager" transform="translate(-150.000000, -2429.000000)">
            <g id="Group-11" transform="translate(150.000000, 2429.000000)">
                <g id="Rectangle-2" fill="#2D7BE7" opacity="0.3">
                    <rect id="Rectangle" x="0" y="0" width="90" height="90" rx="30"></rect>
                </g>
                <rect id="Rectangle" fill="#007DFE" x="10" y="10" width="70" height="70" rx="20"></rect>
                <g id="Group-6" transform="translate(28.000000, 27.000000)" fill="#FFFFFF" fill-rule="nonzero">
                    <path d="M4.8,22.8 C4.1372583,22.8 3.6,23.3372583 3.6,24 L3.6,27.6 L1.2,27.6 C0.5372583,27.6 0,28.1372583 0,28.8 L0,34.8 C0,35.4627417 0.5372583,36 1.2,36 L8.4,36 C9.0627417,36 9.6,35.4627417 9.6,34.8 L9.6,28.8 C9.6,28.1372583 9.0627417,27.6 8.4,27.6 L6,27.6 L6,25.2 L15.6,25.2 L15.6,27.6 L13.2,27.6 C12.5372583,27.6 12,28.1372583 12,28.8 L12,34.8 C12,35.4627417 12.5372583,36 13.2,36 L20.4,36 C21.0627417,36 21.6,35.4627417 21.6,34.8 L21.6,28.8 C21.6,28.1372583 21.0627417,27.6 20.4,27.6 L18,27.6 L18,25.2 L28.2,25.2 L28.2,27.6 L25.8,27.6 C25.1372583,27.6 24.6,28.1372583 24.6,28.8 L24.6,34.8 C24.6,35.4627417 25.1372583,36 25.8,36 L33,36 C33.6627417,36 34.2,35.4627417 34.2,34.8 L34.2,28.8 C34.2,28.1372583 33.6627417,27.6 33,27.6 L30.6,27.6 L30.6,24 C30.6,23.3372583 30.0627417,22.8 29.4,22.8 L18,22.8 L18,19.8 L26.4,19.8 C28.3874025,19.7980156 29.9980156,18.1874025 30,16.2 L30,1.2 C30,0.5372583 29.4627417,0 28.8,0 L5.4,0 C4.7372583,0 4.2,0.5372583 4.2,1.2 L4.2,6 L3,6 C2.3372583,6 1.8,6.5372583 1.8,7.2 L1.8,16.2 C1.80198443,18.1874025 3.41259746,19.7980156 5.4,19.8 L15.6,19.8 L15.6,22.8 L4.8,22.8 Z M7.2,33.6 L2.4,33.6 L2.4,30 L7.2,30 L7.2,33.6 Z M19.2,33.6 L14.4,33.6 L14.4,30 L19.2,30 L19.2,33.6 Z M31.8,33.6 L27,33.6 L27,30 L31.8,30 L31.8,33.6 Z M6.6,2.4 L27.6,2.4 L27.6,16.2 C27.6,16.8627417 27.0627417,17.4 26.4,17.4 C25.7372583,17.4 25.2,16.8627417 25.2,16.2 L25.2,7.2 C25.2,6.5372583 24.6627417,6 24,6 L6.6,6 L6.6,2.4 Z M4.2,16.2 L4.2,8.4 L22.8,8.4 L22.8,16.2 C22.799643,16.6088112 22.8692476,17.0146688 23.0058,17.4 L5.4,17.4 C4.7372583,17.4 4.2,16.8627417 4.2,16.2 Z" id="Shape"></path>
                    <rect id="Rectangle" x="6.6" y="10.8" width="2.4" height="2.4"></rect>
                    <rect id="Rectangle" x="11.4" y="10.8" width="7.8" height="2.4"></rect>
                </g>
            </g>
        </g>
    </g>
</svg>