<?xml version="1.0" encoding="UTF-8"?>
<svg width="90px" height="90px" viewBox="0 0 90 90" version="1.1" xmlns="http://www.w3.org/2000/svg" xmlns:xlink="http://www.w3.org/1999/xlink">
    <title>Group 5</title>
    <g id="Page-1" stroke="none" stroke-width="1" fill="none" fill-rule="evenodd">
        <g id="Onepager" transform="translate(-150.000000, -2069.000000)">
            <g id="Group-5" transform="translate(150.000000, 2069.000000)">
                <g id="Rectangle-2" fill="#2D7BE7" opacity="0.3">
                    <rect id="Rectangle" x="0" y="0" width="90" height="90" rx="30"></rect>
                </g>
                <rect id="Rectangle" fill="#007DFE" x="10" y="10" width="70" height="70" rx="20"></rect>
                <g id="Group-3" transform="translate(27.000000, 27.000000)" fill="#FFFFFF" fill-rule="nonzero">
                    <path d="M9.81818182,0 L3.27272727,0 C1.46454545,0 0,1.46454545 0,3.27272727 L0,9.81818182 C0,11.6263636 1.46454545,13.0909091 3.27272727,13.0909091 L9.81818182,13.0909091 C11.6263636,13.0909091 13.0909091,11.6263636 13.0909091,9.81818182 L13.0909091,3.27272727 C13.0909091,1.46454545 11.6263636,0 9.81818182,0 Z M9.81818182,9.81818182 L3.27272727,9.81818182 L3.27272727,3.27272727 L9.81818182,3.27272727 L9.81818182,9.81818182 Z M8.18181818,8.18181818 L4.90909091,8.18181818 L4.90909091,4.90909091 L8.18181818,4.90909091 L8.18181818,8.18181818 Z" id="Shape"></path>
                    <path d="M9.81818182,22.9090909 L3.27272727,22.9090909 C1.46454545,22.9090909 0,24.3736364 0,26.1818182 L0,32.7272727 C0,34.5354545 1.46454545,36 3.27272727,36 L9.81818182,36 C11.6263636,36 13.0909091,34.5354545 13.0909091,32.7272727 L13.0909091,26.1818182 C13.0909091,24.3736364 11.6263636,22.9090909 9.81818182,22.9090909 Z M9.81818182,32.7272727 L3.27272727,32.7272727 L3.27272727,26.1818182 L9.81818182,26.1818182 L9.81818182,32.7272727 Z M8.18181818,31.0909091 L4.90909091,31.0909091 L4.90909091,27.8181818 L8.18181818,27.8181818 L8.18181818,31.0909091 Z" id="Shape"></path>
                    <path d="M32.7272727,0 L26.1818182,0 C24.3736364,0 22.9090909,1.46454545 22.9090909,3.27272727 L22.9090909,9.81818182 C22.9090909,11.6263636 24.3736364,13.0909091 26.1818182,13.0909091 L32.7272727,13.0909091 C34.5354545,13.0909091 36,11.6263636 36,9.81818182 L36,3.27272727 C36,1.46454545 34.5354545,0 32.7272727,0 Z M32.7272727,9.81818182 L26.1818182,9.81818182 L26.1818182,3.27272727 L32.7272727,3.27272727 L32.7272727,9.81818182 Z M31.0909091,8.18181818 L27.8181818,8.18181818 L27.8181818,4.90909091 L31.0909091,4.90909091 L31.0909091,8.18181818 Z" id="Shape"></path>
                    <rect id="Rectangle" x="16.3636364" y="3.27272727" width="3.27272727" height="3.27272727"></rect>
                    <rect id="Rectangle" x="16.3636364" y="9.81818182" width="3.27272727" height="3.27272727"></rect>
                    <rect id="Rectangle" x="16.3636364" y="16.3636364" width="3.27272727" height="3.27272727"></rect>
                    <rect id="Rectangle" x="9.81818182" y="16.3636364" width="3.27272727" height="3.27272727"></rect>
                    <rect id="Rectangle" x="3.27272727" y="16.3636364" width="3.27272727" height="3.27272727"></rect>
                    <rect id="Rectangle" x="22.9090909" y="16.3636364" width="3.27272727" height="3.27272727"></rect>
                    <rect id="Rectangle" x="29.4545455" y="16.3636364" width="3.27272727" height="3.27272727"></rect>
                    <rect id="Rectangle" x="19.6363636" y="19.6363636" width="3.27272727" height="3.27272727"></rect>
                    <rect id="Rectangle" x="26.1818182" y="19.6363636" width="3.27272727" height="3.27272727"></rect>
                    <rect id="Rectangle" x="22.9090909" y="22.9090909" width="3.27272727" height="3.27272727"></rect>
                    <rect id="Rectangle" x="16.3636364" y="22.9090909" width="3.27272727" height="3.27272727"></rect>
                    <rect id="Rectangle" x="19.6363636" y="26.1818182" width="3.27272727" height="3.27272727"></rect>
                    <rect id="Rectangle" x="22.9090909" y="29.4545455" width="3.27272727" height="3.27272727"></rect>
                    <rect id="Rectangle" x="19.6363636" y="32.7272727" width="3.27272727" height="3.27272727"></rect>
                    <rect id="Rectangle" x="32.7272727" y="19.6363636" width="3.27272727" height="3.27272727"></rect>
                    <rect id="Rectangle" x="32.7272727" y="26.1818182" width="3.27272727" height="3.27272727"></rect>
                    <rect id="Rectangle" x="26.1818182" y="26.1818182" width="3.27272727" height="3.27272727"></rect>
                    <rect id="Rectangle" x="26.1818182" y="32.7272727" width="3.27272727" height="3.27272727"></rect>
                    <rect id="Rectangle" x="29.4545455" y="29.4545455" width="3.27272727" height="3.27272727"></rect>
                    <rect id="Rectangle" x="29.4545455" y="22.9090909" width="3.27272727" height="3.27272727"></rect>
                    <rect id="Rectangle" x="16.3636364" y="29.4545455" width="3.27272727" height="3.27272727"></rect>
                </g>
            </g>
        </g>
    </g>
</svg>