<?xml version="1.0" encoding="UTF-8"?>
<svg width="140px" height="140px" viewBox="0 0 140 140" version="1.1" xmlns="http://www.w3.org/2000/svg" xmlns:xlink="http://www.w3.org/1999/xlink">
    <title>Group 26</title>
    <g id="Page-1" stroke="none" stroke-width="1" fill="none" fill-rule="evenodd">
        <g id="Onepager" transform="translate(-150.000000, -7587.000000)">
            <g id="Group-26" transform="translate(150.000000, 7587.000000)">
                <rect id="Rectangle" fill="#007DFE" x="10" y="10" width="120" height="120" rx="40"></rect>
                <rect id="Rectangle" fill="#007DFE" opacity="0.3" x="0" y="0" width="140" height="140" rx="50"></rect>
                <g id="Shape-2" transform="translate(40.000000, 40.000000)" fill="#FFFFFF" fill-rule="nonzero" stroke="#2D7BE7" stroke-width="1.5">
                    <path d="M30.183456,34.0206462 L34.3875582,29.816544 L19.6284759,15.0574618 L15.4243737,19.261564 L30.183456,34.0206462 Z M51.2635997,8.73640034 C45.6863634,3.1247865 38.095176,-0.0212077098 30.183456,0.000107612452 L27.2018232,0.000107612452 L27.2018232,11.9267474 L33.1650887,11.9267474 L33.1650887,6.14237983 C44.1760529,7.53406788 52.7723084,16.3362292 53.9030191,27.3770454 C55.0337299,38.4178615 48.4001002,48.7797441 37.8998011,52.3744411 C27.399502,55.9691381 15.8072876,51.8467337 9.93430657,42.4293974 C4.0613255,33.0120612 5.45954107,20.7883692 13.3074145,12.9405026 L15.4243737,10.8533596 L11.2202715,6.61944107 L9.10331227,8.73640034 C1.35236155,16.222519 -1.75616989,27.3083317 0.972484478,37.7329974 C3.70113885,48.1576631 11.8423369,56.2988612 22.2670026,59.0275155 C32.6916683,61.7561699 43.777481,58.6476384 51.2635997,50.8966877 C62.9033555,39.2534162 62.9033555,20.3796719 51.2635997,8.73640034 L51.2635997,8.73640034 Z" id="Shape"></path>
                </g>
            </g>
        </g>
    </g>
</svg>