<?xml version="1.0" encoding="UTF-8"?>
<svg width="90px" height="90px" viewBox="0 0 90 90" version="1.1" xmlns="http://www.w3.org/2000/svg" xmlns:xlink="http://www.w3.org/1999/xlink">
    <title>Group 24</title>
    <g id="Page-1" stroke="none" stroke-width="1" fill="none" fill-rule="evenodd">
        <g id="Onepager" transform="translate(-740.000000, -2309.000000)">
            <g id="Group-24" transform="translate(740.000000, 2309.000000)">
                <g id="Rectangle-2" fill="#2D7BE7" opacity="0.3">
                    <rect id="Rectangle" x="0" y="0" width="90" height="90" rx="30"></rect>
                </g>
                <rect id="Rectangle" fill="#007DFE" x="10" y="10" width="70" height="70" rx="20"></rect>
                <polygon id="Path" fill="#FFFFFF" fill-rule="nonzero" points="51.2018182 47.7163636 47.5363636 45.2781818 45.7363636 47.9945455 51.8890909 52.1018182 59.3672727 42.7581818 56.8145455 40.7127273"></polygon>
                <rect id="Rectangle" fill="#FFFFFF" fill-rule="nonzero" x="31.9090909" y="35.1818182" width="26.1818182" height="3.27272727"></rect>
                <rect id="Rectangle" fill="#FFFFFF" fill-rule="nonzero" x="31.9090909" y="51.5454545" width="14.7272727" height="3.27272727"></rect>
                <rect id="Rectangle" fill="#FFFFFF" fill-rule="nonzero" x="31.9090909" y="43.3636364" width="13.0909091" height="3.27272727"></rect>
                <rect id="Rectangle" fill="#FFFFFF" fill-rule="nonzero" x="54.8181818" y="51.5454545" width="3.27272727" height="3.27272727"></rect>
                <path d="M58.8109091,27 L31.1890909,27 C28.8755199,27 27,28.8755199 27,31.1890909 L27,58.8109091 C27,61.1244801 28.8755199,63 31.1890909,63 L58.8109091,63 C61.1244801,63 63,61.1244801 63,58.8109091 L63,31.1890909 C63,28.8755199 61.1244801,27 58.8109091,27 Z M59.7272727,58.8109091 C59.7272727,59.3170028 59.3170028,59.7272727 58.8109091,59.7272727 L31.1890909,59.7272727 C30.6829972,59.7272727 30.2727273,59.3170028 30.2727273,58.8109091 L30.2727273,31.1890909 C30.2727273,30.6829972 30.6829972,30.2727273 31.1890909,30.2727273 L58.8109091,30.2727273 C59.3170028,30.2727273 59.7272727,30.6829972 59.7272727,31.1890909 L59.7272727,58.8109091 Z" id="Shape" fill="#FFFFFF" fill-rule="nonzero"></path>
            </g>
        </g>
    </g>
</svg>