<?xml version="1.0" encoding="UTF-8"?>
<svg width="140px" height="140px" viewBox="0 0 140 140" version="1.1" xmlns="http://www.w3.org/2000/svg" xmlns:xlink="http://www.w3.org/1999/xlink">
    <title>Group 31</title>
    <g id="Page-1" stroke="none" stroke-width="1" fill="none" fill-rule="evenodd">
        <g id="Onepager" transform="translate(-630.000000, -7587.000000)">
            <g id="Group-31" transform="translate(630.000000, 7587.000000)">
                <rect id="Rectangle" fill="#007DFE" opacity="0.3" x="0" y="0" width="140" height="140" rx="50"></rect>
                <rect id="Rectangle" fill="#007DFE" x="10" y="10" width="120" height="120" rx="40"></rect>
                <g id="Group" transform="translate(40.000000, 48.000000)" fill="#FFFFFF" fill-rule="nonzero" stroke="#2D7BE7" stroke-width="2.5">
                    <path d="M46.0983692,32.6504776 L38.5985466,25.150655 C37.526072,24.0781804 37.2035796,22.4657185 37.7848158,21.0632517 C38.3623022,19.6645348 39.7347697,18.7495564 41.2497339,18.7495564 L44.4671577,18.7495564 C42.7909474,12.299709 36.9710851,7.49982258 30,7.49982258 C27.9075495,7.49982258 25.8863473,7.91981264 23.9926421,8.74854303 C22.0876872,9.57352352 19.8827393,8.71104392 19.054009,6.81733872 C18.2215286,4.91988361 19.0877582,2.70743595 20.9852133,1.87870556 C23.8313959,0.633735008 26.8688241,0 30,0 C41.1259868,0 50.3657682,8.12605776 52.1619757,18.7495564 L56.249379,18.7495564 C57.7643432,18.7495564 59.1368107,19.6645348 59.714297,21.0632517 C60.2955333,22.4657185 59.9730409,24.0781804 58.9005663,25.150655 L51.4007437,32.6504776 C50.669511,33.3817103 49.7095337,33.7492016 48.7495564,33.7492016 C47.7895791,33.7492016 46.8296019,33.3817103 46.0983692,32.6504776 Z" id="XMLID_348_-path"></path>
                    <path d="M1.09943371,19.8482804 L8.59925628,12.3484579 C10.0654716,10.8822426 12.4354155,10.8822426 13.9016308,12.3484579 L21.4014534,19.8482804 C22.473928,20.9207551 22.7964204,22.5332169 22.2151842,23.9356837 C21.6376978,25.3381506 20.2652303,26.249379 18.7502661,26.249379 L15.5328423,26.249379 C17.2090526,32.7029763 23.0289149,37.4991129 30,37.4991129 C32.0849507,37.4991129 34.1024029,37.0791228 35.9961081,36.2541423 C37.8898133,35.4141622 40.102261,36.2953914 40.9309914,38.1890966 C41.7634717,40.0865517 40.8934923,42.2989993 38.9960372,43.1239798 C36.1536044,44.3689504 33.1236761,44.9989355 30,44.9989355 C18.8740132,44.9989355 9.6342318,36.8728777 7.83802429,26.249379 L3.75062099,26.249379 C2.23565683,26.249379 0.863189295,25.3381506 0.285702957,23.9356837 C-0.295533293,22.5332169 0.0269590781,20.9207551 1.09943371,19.8482804 Z" id="XMLID_348_-path"></path>
                </g>
            </g>
        </g>
    </g>
</svg>