<?xml version="1.0" encoding="UTF-8"?>
<svg width="163px" height="57px" viewBox="0 0 163 57" version="1.1" xmlns="http://www.w3.org/2000/svg" xmlns:xlink="http://www.w3.org/1999/xlink">
    <title>Group 4</title>
    <g id="Page-1" stroke="none" stroke-width="1" fill="none" fill-rule="evenodd">
        <g id="Onepager" transform="translate(-147.000000, -6.000000)">
            <g id="Group-4" transform="translate(150.000000, 10.000000)">
                <g id="Group-15" stroke-linejoin="round" stroke-width="6">
                    <polygon id="Path-2" stroke="#2D7BE7" points="46.3952903 1.42108547e-14 0 19.6682509 36.5324894 37.5365919"></polygon>
                    <polygon id="Path-3" stroke="#FFFFFF" points="10.2503209 9.18467611 24.9593323 50 46.3952903 -1.28475534e-15"></polygon>
                </g>
                <g id="arVisor" transform="translate(51.000000, 12.000000)" fill-rule="nonzero">
                    <path d="M9.05471703,26.9455261 C10.3057376,26.9455261 11.4201176,26.6509897 12.397857,26.0619169 C13.3755964,25.4728441 14.1438202,24.6924745 14.7025284,23.720808 L14.7025284,23.720808 L14.7025284,26.5264949 L18.7653089,26.5264949 L18.7653089,7.83406101 L14.7754034,7.83406101 L14.7754034,10.275373 C14.1924035,9.38872738 13.4150704,8.68123272 12.4434039,8.15288907 C11.4717374,7.62454542 10.3664668,7.3603736 9.12759201,7.3603736 C7.70652978,7.3603736 6.40996232,7.6336548 5.23788963,8.18021719 C4.06581693,8.72677959 3.10325983,9.46160236 2.3502183,10.3846855 C1.59717678,11.3077687 1.01721335,12.364456 0.610328009,13.5547474 C0.20344267,14.7450389 0,15.9960595 0,17.3078092 C0,18.5588298 0.191296839,19.7521577 0.573890516,20.8877929 C0.956484193,22.0234281 1.51215596,23.0467144 2.24090582,23.9576517 C2.96965568,24.868589 3.92310342,25.5943024 5.10124903,26.1347919 C6.27939464,26.6752814 7.5972173,26.9455261 9.05471703,26.9455261 Z M9.61949817,23.6297142 C7.78547768,23.6297142 6.40388941,23.0284956 5.47473333,21.8260583 C4.54557726,20.6236211 4.08099922,19.0628818 4.08099922,17.1438405 C4.08099922,15.1883617 4.5425408,13.618513 5.46562396,12.4342945 C6.38870712,11.250076 7.75511311,10.6579667 9.56484193,10.6579667 C11.3259874,10.6579667 12.6589924,11.2470395 13.5638568,12.4251851 C14.4687212,13.6033307 14.9211534,15.16407 14.9211534,17.107403 C14.9211534,19.0871734 14.4839035,20.6691679 13.6094037,21.8533865 C12.7349038,23.037605 11.4049353,23.6297142 9.61949817,23.6297142 Z M25.8596888,26.5264949 L25.8596888,16.0142782 C25.8596888,14.3624452 26.2665742,13.0901694 27.0803448,12.1974508 C27.8941155,11.3047322 28.9629487,10.8583729 30.2868442,10.8583729 C31.0398858,10.8583729 31.7686356,10.9798312 32.4730938,11.2227479 L32.4730938,11.2227479 L32.4730938,7.6336548 C31.8172189,7.45146733 31.1856357,7.3603736 30.5783442,7.3603736 C28.7443237,7.3603736 27.1532198,8.39884215 25.8050326,10.4757793 L25.8050326,10.4757793 L25.8050326,7.83406101 L21.4689709,7.83406101 L21.5418459,8.61746711 C21.5904292,9.13973784 21.6390125,9.7895398 21.6875959,10.566873 C21.7361792,11.3442062 21.7604709,11.9879352 21.7604709,12.4980601 L21.7604709,12.4980601 L21.7604709,26.5264949 L25.8596888,26.5264949 Z" id="ar" fill="#FFFFFF"></path>
                    <path d="M44.9966602,26.5264949 L54.998752,0 L50.5715966,0 C46.0654933,12.5709351 43.5270146,19.6337358 42.9561606,21.1884022 C41.9359108,18.4191527 40.4753746,14.3290441 38.574552,8.91807643 C36.6737295,3.50710871 35.6261515,0.534416565 35.4318183,0 L35.4318183,0 L30.7131629,0 L40.769911,26.5264949 L44.9966602,26.5264949 Z M59.3238825,3.64374931 L59.3238825,0 L55.3521957,0 L55.3521957,3.64374931 L59.3238825,3.64374931 Z M59.3238825,26.5264949 L59.3238825,7.83406101 L55.333977,7.83406101 L55.333977,26.5264949 L59.3238825,26.5264949 Z M68.9142306,26.9455261 C69.752293,26.9455261 70.5508814,26.845323 71.3099958,26.6449168 C72.0691102,26.4445106 72.7826778,26.1347919 73.4506985,25.7157607 C74.1187192,25.2967296 74.6500993,24.7076568 75.0448388,23.9485423 C75.4395783,23.1894279 75.6369481,22.2997458 75.6369481,21.2794959 C75.6369481,20.5871836 75.5488908,19.9738191 75.3727763,19.4394025 C75.1966617,18.904986 74.9750003,18.4555902 74.707792,18.0912153 C74.4405837,17.7268404 74.0670994,17.3867571 73.5873391,17.0709655 C73.1075788,16.7551739 72.6430007,16.497075 72.193605,16.2966688 C71.7442093,16.0962626 71.1672823,15.8746011 70.4628241,15.6316845 C70.3899491,15.6073929 70.0771939,15.4980804 69.5245586,15.3037471 C68.9719233,15.1094138 68.671314,15.0061742 68.6227307,14.9940284 C67.3231268,14.5324868 66.482028,14.1559661 66.0994343,13.8644661 C65.7168406,13.5729662 65.5255438,13.1357162 65.5255438,12.5527164 C65.5255438,11.2652583 66.6004498,10.6215292 68.7502619,10.6215292 C69.5761784,10.6215292 70.4597876,10.7612063 71.4010895,11.0405604 C72.3423914,11.3199145 73.1349069,11.6296332 73.7786359,11.9697165 L73.7786359,11.9697165 L74.8717607,9.12759201 C74.0701359,8.60532128 73.0984694,8.18629011 71.9567613,7.8704985 C70.8150532,7.55470689 69.6126159,7.39681109 68.3494495,7.39681109 C67.450658,7.39681109 66.6065227,7.4970142 65.8170437,7.69742041 C65.0275647,7.89782662 64.3048878,8.2014724 63.6490129,8.60835774 C62.993138,9.01524307 62.4769402,9.56787839 62.1004194,10.2662637 C61.7238987,10.964649 61.5356383,11.7753832 61.5356383,12.6984663 C61.5356383,13.5000912 61.6540601,14.1924035 61.8909038,14.7754034 C62.1277475,15.3584033 62.4951589,15.8503095 62.993138,16.2511219 C63.4911171,16.6519343 64.001242,16.9798718 64.5235127,17.2349342 C65.0457834,17.4899967 65.7198771,17.757205 66.5457936,18.0365591 L66.5457936,18.0365591 L68.2947932,18.6377777 C69.752293,19.1357568 70.7057407,19.5517515 71.1551364,19.8857618 C71.6045322,20.2197722 71.8292301,20.6904231 71.8292301,21.2977147 C71.8292301,22.8888186 70.7482511,23.6843705 68.5862932,23.6843705 C67.5053142,23.6843705 66.4000436,23.4839643 65.2704813,23.0831519 C64.140919,22.6823394 63.20569,22.2025791 62.4647944,21.6438709 L62.4647944,21.6438709 L61.4081071,24.6317453 C62.1611486,25.226891 63.1935442,25.7613076 64.505294,26.234995 C65.8170437,26.7086824 67.2866893,26.9455261 68.9142306,26.9455261 Z M86.1200148,26.9455261 C87.6625354,26.9455261 89.0562695,26.6904637 90.3012172,26.1803388 C91.5461649,25.6702139 92.5603417,24.9687921 93.3437478,24.0760735 C94.1271539,23.183355 94.7283726,22.1539958 95.1474038,20.987996 C95.5664349,19.8219962 95.7759505,18.5649027 95.7759505,17.2167155 C95.7759505,15.7956532 95.5725078,14.4930129 95.1656225,13.3087943 C94.7587372,12.1245758 94.1666279,11.0861073 93.3892947,10.1933887 C92.6119615,9.3006701 91.6038576,8.60532128 90.3649828,8.10734221 C89.126108,7.60936313 87.7171916,7.3603736 86.1382336,7.3603736 C84.0734423,7.3603736 82.2910416,7.79762351 80.7910315,8.67212335 C79.2910214,9.54662318 78.1766414,10.7156594 77.4478915,12.1792321 C76.7191416,13.6428047 76.3547667,15.30982 76.3547667,17.180278 C76.3547667,18.5527569 76.5642823,19.8250327 76.9833135,20.9971054 C77.4023446,22.1691781 78.0096362,23.1985372 78.8051881,24.0851829 C79.60074,24.9718286 80.6270628,25.6702139 81.8841563,26.1803388 C83.1412498,26.6904637 84.5532026,26.9455261 86.1200148,26.9455261 Z M86.1017961,23.6297142 C84.2920673,23.6297142 82.9256613,23.0284956 82.0025781,21.8260583 C81.079495,20.6236211 80.6179534,19.0689547 80.6179534,17.1620592 C80.6179534,15.2308721 81.0855679,13.6640599 82.0207969,12.4616226 C82.9560259,11.2591854 84.310286,10.6579667 86.0835774,10.6579667 C87.8568687,10.6579667 89.2050559,11.2591854 90.1281391,12.4616226 C91.0512222,13.6640599 91.5127638,15.2308721 91.5127638,17.1620592 C91.5127638,19.0689547 91.0603316,20.6236211 90.1554672,21.8260583 C89.2506028,23.0284956 87.8993791,23.6297142 86.1017961,23.6297142 Z M102.032268,26.5264949 L102.032268,16.0142782 C102.032268,14.3624452 102.439153,13.0901694 103.252924,12.1974508 C104.066695,11.3047322 105.135528,10.8583729 106.459423,10.8583729 C107.212465,10.8583729 107.941215,10.9798312 108.645673,11.2227479 L108.645673,11.2227479 L108.645673,7.6336548 C107.989798,7.45146733 107.358215,7.3603736 106.750923,7.3603736 C104.916903,7.3603736 103.325799,8.39884215 101.977612,10.4757793 L101.977612,10.4757793 L101.977612,7.83406101 L97.6415502,7.83406101 L97.7144251,8.61746711 C97.7630085,9.13973784 97.8115918,9.7895398 97.8601751,10.566873 C97.9087584,11.3442062 97.9330501,11.9879352 97.9330501,12.4980601 L97.9330501,12.4980601 L97.9330501,26.5264949 L102.032268,26.5264949 Z" id="Visor" fill="#2D7BE7"></path>
                </g>
            </g>
        </g>
    </g>
</svg>