<?xml version="1.0" encoding="UTF-8"?>
<svg width="90px" height="90px" viewBox="0 0 90 90" version="1.1" xmlns="http://www.w3.org/2000/svg" xmlns:xlink="http://www.w3.org/1999/xlink">
    <title>Group 7</title>
    <g id="Page-1" stroke="none" stroke-width="1" fill="none" fill-rule="evenodd">
        <g id="Onepager" transform="translate(-150.000000, -2189.000000)">
            <g id="Group-7" transform="translate(150.000000, 2189.000000)">
                <g id="Rectangle-2" fill="#2D7BE7" opacity="0.3">
                    <rect id="Rectangle" x="0" y="0" width="90" height="90" rx="30"></rect>
                </g>
                <rect id="Rectangle" fill="#007DFE" x="10" y="10" width="70" height="70" rx="20"></rect>
                <g id="Group-2" transform="translate(27.000000, 27.000000)" fill="#FFFFFF" fill-rule="nonzero">
                    <path d="M3.85714286,30.8571429 C3.14706246,30.8571429 2.57142857,30.281509 2.57142857,29.5714286 L2.57142857,20.5714286 C2.57142857,19.8613482 3.14706246,19.2857143 3.85714286,19.2857143 C4.56722325,19.2857143 5.14285714,19.8613482 5.14285714,20.5714286 L5.14285714,29.5714286 C5.14285714,30.281509 4.56722325,30.8571429 3.85714286,30.8571429 Z" id="Path"></path>
                    <path d="M5.78571429,31.5000215 C5.44396759,31.5019758 5.11549564,31.3678112 4.87285714,31.1271429 C4.62945516,30.8857287 4.49254501,30.5571054 4.49254501,30.2142857 C4.49254501,29.871466 4.62945516,29.5428428 4.87285714,29.3014286 L15.1585714,19.0157143 C15.4847039,18.6895818 15.9600523,18.5622126 16.4055575,18.6815854 C16.8510627,18.8009581 17.1990419,19.1489373 17.3184146,19.5944425 C17.4377874,20.0399477 17.3104182,20.5152961 16.9842857,20.8414286 L6.69857143,31.1271429 C6.45593293,31.3678112 6.12746098,31.5019758 5.78571429,31.5000215 Z" id="Path"></path>
                    <path d="M16.1871429,17.4728571 C15.843541,17.4714307 15.5148061,17.3325287 15.2742857,17.0871429 L4.77,6.58285714 C4.33314412,6.07273679 4.36251565,5.31232178 4.83741872,4.83741872 C5.31232178,4.36251565 6.07273679,4.33314412 6.58285714,4.77 L17.0871429,15.2742857 C17.5856446,15.7757624 17.5856446,16.5856661 17.0871429,17.0871429 C16.8497608,17.3293898 16.5262748,17.4680267 16.1871429,17.4728571 Z" id="Path"></path>
                    <path d="M15.4285714,5.14285714 L6.42857143,5.14285714 C5.71849104,5.14285714 5.14285714,4.56722325 5.14285714,3.85714286 C5.14285714,3.14706246 5.71849104,2.57142857 6.42857143,2.57142857 L15.4285714,2.57142857 C16.1386518,2.57142857 16.7142857,3.14706246 16.7142857,3.85714286 C16.7142857,4.56722325 16.1386518,5.14285714 15.4285714,5.14285714 Z" id="Path"></path>
                    <path d="M29.5714286,5.14285714 L20.5714286,5.14285714 C19.8613482,5.14285714 19.2857143,4.56722325 19.2857143,3.85714286 C19.2857143,3.14706246 19.8613482,2.57142857 20.5714286,2.57142857 L29.5714286,2.57142857 C30.281509,2.57142857 30.8571429,3.14706246 30.8571429,3.85714286 C30.8571429,4.56722325 30.281509,5.14285714 29.5714286,5.14285714 Z" id="Path"></path>
                    <path d="M29.5714286,33.4285714 L20.5714286,33.4285714 C19.8613482,33.4285714 19.2857143,32.8529375 19.2857143,32.1428571 C19.2857143,31.4327768 19.8613482,30.8571429 20.5714286,30.8571429 L29.5714286,30.8571429 C30.281509,30.8571429 30.8571429,31.4327768 30.8571429,32.1428571 C30.8571429,32.8529375 30.281509,33.4285714 29.5714286,33.4285714 Z" id="Path"></path>
                    <path d="M32.1428571,16.7142857 C31.4327768,16.7142857 30.8571429,16.1386518 30.8571429,15.4285714 L30.8571429,6.42857143 C30.8571429,5.71849104 31.4327768,5.14285714 32.1428571,5.14285714 C32.8529375,5.14285714 33.4285714,5.71849104 33.4285714,6.42857143 L33.4285714,15.4285714 C33.4285714,16.1386518 32.8529375,16.7142857 32.1428571,16.7142857 Z" id="Path"></path>
                    <path d="M32.1428571,30.8571429 C31.4327768,30.8571429 30.8571429,30.281509 30.8571429,29.5714286 L30.8571429,20.5714286 C30.8571429,19.8613482 31.4327768,19.2857143 32.1428571,19.2857143 C32.8529375,19.2857143 33.4285714,19.8613482 33.4285714,20.5714286 L33.4285714,29.5714286 C33.4285714,30.281509 32.8529375,30.8571429 32.1428571,30.8571429 Z" id="Path"></path>
                    <circle id="Oval" cx="18" cy="3.85714286" r="3.85714286"></circle>
                    <circle id="Oval" cx="18" cy="18" r="3.85714286"></circle>
                    <circle id="Oval" cx="18" cy="32.1428571" r="3.85714286"></circle>
                    <circle id="Oval" cx="3.85714286" cy="3.85714286" r="3.85714286"></circle>
                    <circle id="Oval" cx="3.85714286" cy="18" r="3.85714286"></circle>
                    <circle id="Oval" cx="3.85714286" cy="32.1428571" r="3.85714286"></circle>
                    <circle id="Oval" cx="32.1428571" cy="3.85714286" r="3.85714286"></circle>
                    <circle id="Oval" cx="32.1428571" cy="18" r="3.85714286"></circle>
                    <circle id="Oval" cx="32.1428571" cy="32.1428571" r="3.85714286"></circle>
                </g>
            </g>
        </g>
    </g>
</svg>