<?xml version="1.0" encoding="UTF-8"?>
<svg width="258px" height="38px" viewBox="0 0 258 38" version="1.1" xmlns="http://www.w3.org/2000/svg" xmlns:xlink="http://www.w3.org/1999/xlink">
    <title>Group 35</title>
    <g id="Page-1" stroke="none" stroke-width="1" fill="none" fill-rule="evenodd">
        <g id="Onepager" transform="translate(-550.000000, -3019.000000)" fill-rule="nonzero">
            <g id="Group-35" transform="translate(550.000000, 3019.562500)">
                <g id="Mapper" transform="translate(124.160156, 0.000000)" fill="#FFFFFF">
                    <path d="M0,28.4375 L0,0 L3.61328125,0 C3.96484375,0.807291667 5.48502604,4.296875 8.17382812,10.46875 C10.8626302,16.640625 12.890625,21.3671875 14.2578125,24.6484375 C15.6510417,21.3671875 17.7213542,16.6503906 20.46875,10.4980469 C23.2161458,4.34570312 24.7786458,0.846354167 25.15625,0 L28.515625,0 L28.515625,28.4375 L25.7226562,28.4375 L25.7226562,4.765625 L24.5117188,7.7734375 L15.2148438,28.4375 L13.2617188,28.4375 L4.19921875,7.8515625 L2.8125,4.296875 L2.8125,28.4375 L0,28.4375 Z" id="Path"></path>
                    <path d="M42.3554688,26.5820312 C44.4778646,26.5820312 46.1152344,25.8333333 47.2675781,24.3359375 C48.4199219,22.8385417 48.9960938,20.8072917 48.9960938,18.2421875 C48.9960938,15.8072917 48.406901,13.8509115 47.2285156,12.3730469 C46.0501302,10.8951823 44.4192708,10.15625 42.3359375,10.15625 C40.1484375,10.15625 38.4427083,10.8984375 37.21875,12.3828125 C35.9947917,13.8671875 35.3828125,15.8268229 35.3828125,18.2617188 C35.3828125,20.7617188 35.9980469,22.7734375 37.2285156,24.296875 C38.4589844,25.8203125 40.1679688,26.5820312 42.3554688,26.5820312 Z M42.0625,28.8476562 C40.1223958,28.8476562 38.4296875,28.3886719 36.984375,27.4707031 C35.5390625,26.5527344 34.4453125,25.3027344 33.703125,23.7207031 C32.9609375,22.1386719 32.5898438,20.3385417 32.5898438,18.3203125 C32.5898438,15.2473958 33.4557292,12.7408854 35.1875,10.8007812 C36.9192708,8.86067708 39.2239583,7.890625 42.1015625,7.890625 C43.6510417,7.890625 45.03125,8.26822917 46.2421875,9.0234375 C47.453125,9.77864583 48.3515625,10.7552083 48.9375,11.953125 L48.9375,8.3984375 L51.671875,8.3984375 L51.671875,28.4375 L48.9179688,28.4375 L48.9179688,24.6289062 C48.3190104,25.9309896 47.4270833,26.9596354 46.2421875,27.7148438 C45.0572917,28.4700521 43.6640625,28.8476562 42.0625,28.8476562 Z" id="Shape"></path>
                    <path d="M66.7421875,26.640625 C68.8125,26.640625 70.4173177,25.9016927 71.5566406,24.4238281 C72.6959635,22.9459635 73.265625,20.9570312 73.265625,18.4570312 C73.265625,15.9440104 72.6959635,13.9420573 71.5566406,12.4511719 C70.4173177,10.9602865 68.8190104,10.2148438 66.7617188,10.2148438 C64.6002604,10.2148438 62.891276,10.999349 61.6347656,12.5683594 C60.3782552,14.1373698 59.75,16.1914062 59.75,18.7304688 C59.75,21.1653646 60.3717448,23.0924479 61.6152344,24.5117188 C62.858724,25.9309896 64.5677083,26.640625 66.7421875,26.640625 Z M57.0546875,37.4023438 L57.0546875,13.9257812 C57.0546875,12.7669271 56.9960938,10.9244792 56.8789062,8.3984375 L59.7304688,8.3984375 L59.7890625,12.5976562 C60.2578125,11.2695312 61.1660156,10.1627604 62.5136719,9.27734375 C63.8613281,8.39192708 65.3815104,7.94921875 67.0742188,7.94921875 C69.8085938,7.94921875 71.9960938,8.91276042 73.6367188,10.8398438 C75.2773438,12.7669271 76.0976562,15.2864583 76.0976562,18.3984375 C76.0976562,21.5234375 75.2740885,24.0559896 73.6269531,25.9960938 C71.9798177,27.9361979 69.7825521,28.90625 67.0351562,28.90625 C65.3424479,28.90625 63.8352865,28.5188802 62.5136719,27.7441406 C61.1920573,26.969401 60.2903646,25.9700521 59.8085938,24.7460938 L59.8085938,37.4023438 L57.0546875,37.4023438 Z" id="Shape"></path>
                    <path d="M89.4101562,26.640625 C91.4804688,26.640625 93.0852865,25.9016927 94.2246094,24.4238281 C95.3639323,22.9459635 95.9335938,20.9570312 95.9335938,18.4570312 C95.9335938,15.9440104 95.3639323,13.9420573 94.2246094,12.4511719 C93.0852865,10.9602865 91.4869792,10.2148438 89.4296875,10.2148438 C87.2682292,10.2148438 85.5592448,10.999349 84.3027344,12.5683594 C83.046224,14.1373698 82.4179688,16.1914062 82.4179688,18.7304688 C82.4179688,21.1653646 83.0397135,23.0924479 84.2832031,24.5117188 C85.5266927,25.9309896 87.2356771,26.640625 89.4101562,26.640625 Z M79.7226562,37.4023438 L79.7226562,13.9257812 C79.7226562,12.7669271 79.6640625,10.9244792 79.546875,8.3984375 L82.3984375,8.3984375 L82.4570312,12.5976562 C82.9257812,11.2695312 83.8339844,10.1627604 85.1816406,9.27734375 C86.5292969,8.39192708 88.0494792,7.94921875 89.7421875,7.94921875 C92.4765625,7.94921875 94.6640625,8.91276042 96.3046875,10.8398438 C97.9453125,12.7669271 98.765625,15.2864583 98.765625,18.3984375 C98.765625,21.5234375 97.9420573,24.0559896 96.2949219,25.9960938 C94.6477865,27.9361979 92.4505208,28.90625 89.703125,28.90625 C88.0104167,28.90625 86.5032552,28.5188802 85.1816406,27.7441406 C83.860026,26.969401 82.9583333,25.9700521 82.4765625,24.7460938 L82.4765625,37.4023438 L79.7226562,37.4023438 Z" id="Shape"></path>
                    <path d="M103.542969,16.796875 L116.726562,16.796875 C116.596354,14.7135417 115.968099,13.0794271 114.841797,11.8945312 C113.715495,10.7096354 112.247396,10.1171875 110.4375,10.1171875 C108.549479,10.1171875 106.983724,10.7161458 105.740234,11.9140625 C104.496745,13.1119792 103.764323,14.7395833 103.542969,16.796875 Z M110.886719,28.8476562 C107.748698,28.8476562 105.248698,27.906901 103.386719,26.0253906 C101.52474,24.1438802 100.59375,21.6341146 100.59375,18.4960938 C100.59375,15.3320312 101.485677,12.7734375 103.269531,10.8203125 C105.053385,8.8671875 107.423177,7.890625 110.378906,7.890625 C113.126302,7.890625 115.277995,8.78255208 116.833984,10.5664062 C118.389974,12.3502604 119.167969,14.7200521 119.167969,17.6757812 C119.167969,18.2486979 119.161458,18.6002604 119.148438,18.7304688 L103.445312,18.7304688 C103.445312,21.1783854 104.128906,23.0989583 105.496094,24.4921875 C106.863281,25.8854167 108.692708,26.5820312 110.984375,26.5820312 C113.471354,26.5820312 115.658854,25.8398438 117.546875,24.3554688 L118.445312,26.3476562 C117.455729,27.1419271 116.30013,27.7571615 114.978516,28.1933594 C113.656901,28.6295573 112.292969,28.8476562 110.886719,28.8476562 Z" id="Shape"></path>
                    <path d="M122.890625,28.4375 L122.890625,13.3007812 C122.890625,12.7018229 122.871094,11.9954427 122.832031,11.1816406 C122.792969,10.3678385 122.760417,9.70052083 122.734375,9.1796875 L122.675781,8.3984375 L125.546875,8.3984375 L125.664062,11.8164062 C126.171875,10.5143229 126.917318,9.54427083 127.900391,8.90625 C128.883464,8.26822917 130.013021,7.94921875 131.289062,7.94921875 C131.992188,7.94921875 132.66276,8.01432292 133.300781,8.14453125 L133.242188,10.625 C132.526042,10.46875 131.848958,10.390625 131.210938,10.390625 C129.518229,10.390625 128.170573,10.9700521 127.167969,12.1289062 C126.165365,13.2877604 125.664062,15.0455729 125.664062,17.4023438 L125.664062,28.4375 L122.890625,28.4375 Z" id="Path"></path>
                </g>
                <g id="arVisor" transform="translate(-0.000000, 0.437500)">
                    <path d="M9.91983773,29.52 C11.2903854,29.52 12.5112373,29.1973225 13.5823935,28.5519675 C14.6535497,27.9066126 15.4951724,27.0516836 16.1072617,25.9871805 L16.1072617,25.9871805 L16.1072617,29.0609331 L20.558215,29.0609331 L20.558215,8.58255578 L16.1870994,8.58255578 L16.1870994,11.2571197 C15.5483976,10.2857606 14.6967951,9.51066937 13.6322921,8.93184584 C12.567789,8.35302231 11.3569168,8.06361055 9.99967546,8.06361055 C8.44283976,8.06361055 7.02239351,8.36300203 5.73833671,8.96178499 C4.45427992,9.56056795 3.39975659,10.3655984 2.57476673,11.3768763 C1.74977688,12.3881542 1.11440162,13.5458012 0.668640974,14.8498174 C0.222880325,16.1538337 0,17.5243813 0,18.9614604 C0,20.3320081 0.209574037,21.6393509 0.62872211,22.8834888 C1.04787018,24.1276268 1.65663286,25.2486815 2.45501014,26.2466531 C3.25338742,27.2446247 4.29793103,28.0396755 5.58864097,28.6318053 C6.87935091,29.2239351 8.32308316,29.52 9.91983773,29.52 Z M10.5385801,25.8873834 C8.52933063,25.8873834 7.01574037,25.2287221 5.99780933,23.9113996 C4.9798783,22.5940771 4.47091278,20.8842191 4.47091278,18.7818256 C4.47091278,16.6395132 4.97655172,14.9196755 5.98782961,13.6223124 C6.99910751,12.3249493 8.49606491,11.6762677 10.4787018,11.6762677 C12.4081136,11.6762677 13.8684787,12.3216227 14.8597972,13.6123327 C15.8511156,14.9030426 16.3467748,16.6129006 16.3467748,18.7419067 C16.3467748,20.9108316 15.8677485,22.6439757 14.9096957,23.9413387 C13.951643,25.2387018 12.4946045,25.8873834 10.5385801,25.8873834 Z M28.3304178,29.0609331 L28.3304178,17.5443408 C28.3304178,15.7346856 28.7761785,14.3408519 29.6676998,13.3628398 C30.5592211,12.3848276 31.7301744,11.8958215 33.1805598,11.8958215 C34.0055497,11.8958215 34.803927,12.0288844 35.5756917,12.2950101 L35.5756917,12.2950101 L35.5756917,8.36300203 C34.8571521,8.16340771 34.1652252,8.06361055 33.4999108,8.06361055 C31.4906613,8.06361055 29.7475375,9.20129817 28.2705396,11.4766734 L28.2705396,11.4766734 L28.2705396,8.58255578 L23.5201947,8.58255578 L23.6000325,9.44081136 C23.6532576,10.0129817 23.7064828,10.7248682 23.7597079,11.5764706 C23.8129331,12.428073 23.8395456,13.1333063 23.8395456,13.6921704 L23.8395456,13.6921704 L23.8395456,29.0609331 L28.3304178,29.0609331 Z" id="ar" fill="#FFFFFF"></path>
                    <path d="M49.2958053,29.0609331 L60.2535335,0 L55.4033915,0 C50.4667586,13.7720081 47.6857444,21.5096146 47.0603489,23.2128195 C45.9426207,20.1789858 44.3425396,15.6980933 42.2601055,9.77014199 C40.1776714,3.84219067 39.0300041,0.585476673 38.8171034,0 L38.8171034,0 L33.6476105,0 L44.665217,29.0609331 L49.2958053,29.0609331 Z M64.9919026,3.99188641 L64.9919026,0 L60.6407465,0 L60.6407465,3.99188641 L64.9919026,3.99188641 Z M64.9919026,29.0609331 L64.9919026,8.58255578 L60.620787,8.58255578 L60.620787,29.0609331 L64.9919026,29.0609331 Z M75.4985477,29.52 C76.4166815,29.52 77.29157,29.4102231 78.123213,29.1906694 C78.954856,28.9711156 79.7366004,28.6318053 80.4684462,28.1727383 C81.2002921,27.7136714 81.7824422,27.0683164 82.2148966,26.2366734 C82.6473509,25.4050304 82.8635781,24.4303448 82.8635781,23.3126166 C82.8635781,22.5541582 82.7671075,21.8821907 82.5741663,21.296714 C82.3812252,20.7112373 82.1383854,20.2189047 81.8456471,19.819716 C81.5529087,19.4205274 81.1437404,19.0479513 80.618142,18.7019878 C80.0925436,18.3560243 79.5835781,18.0732657 79.0912454,17.853712 C78.5989128,17.6341582 77.9668641,17.3913185 77.1950994,17.1251927 C77.1152617,17.0985801 76.7726247,16.9788235 76.1671886,16.7659229 C75.5617525,16.5530223 75.2324219,16.4399189 75.1791968,16.4266126 C73.7554239,15.9209736 72.8339635,15.5084787 72.4148154,15.1891278 C71.9956673,14.8697769 71.7860933,14.3907505 71.7860933,13.7520487 C71.7860933,12.3415822 72.9636998,11.6363489 75.3189128,11.6363489 C76.2237404,11.6363489 77.1917728,11.7893712 78.2230101,12.0954158 C79.2542475,12.4014604 80.1224828,12.7407708 80.827716,13.1133469 L80.827716,13.1133469 L82.0252819,9.99967546 C81.1470669,9.42750507 80.0825639,8.96843813 78.8317728,8.62247465 C77.5809817,8.27651116 76.2636592,8.10352941 74.8798053,8.10352941 C73.89514,8.10352941 72.9703529,8.21330629 72.1054442,8.43286004 C71.2405355,8.65241379 70.4488114,8.98507099 69.7302718,9.43083164 C69.0117323,9.87659229 68.446215,10.4820284 68.0337201,11.24714 C67.6212252,12.0122515 67.4149777,12.9004462 67.4149777,13.9117241 C67.4149777,14.7899391 67.544714,15.5483976 67.8041866,16.1870994 C68.0636592,16.8258012 68.4661744,17.3647059 69.0117323,17.8038134 C69.5572901,18.2429209 70.1161542,18.6021907 70.6883245,18.8816227 C71.2604949,19.1610548 71.9989939,19.4537931 72.9038215,19.7598377 L72.9038215,19.7598377 L74.819927,20.418499 C76.4166815,20.9640568 77.4612252,21.4197972 77.9535578,21.7857201 C78.4458905,22.151643 78.6920568,22.6672617 78.6920568,23.3325761 C78.6920568,25.0756998 77.5077972,25.9472617 75.1392779,25.9472617 C73.9550183,25.9472617 72.744146,25.7277079 71.5066613,25.2886004 C70.2691765,24.8494929 69.2445923,24.3238945 68.4329087,23.7118053 L68.4329087,23.7118053 L67.2752617,26.9851521 C68.1002515,27.6371602 69.231286,28.2226369 70.6683651,28.7415822 C72.1054442,29.2605274 73.7155051,29.52 75.4985477,29.52 Z M94.3482353,29.52 C96.0381339,29.52 97.5650304,29.240568 98.9289249,28.6817039 C100.292819,28.1228398 101.403895,27.3544016 102.26215,26.3763895 C103.120406,25.3983773 103.779067,24.2706694 104.238134,22.9932657 C104.697201,21.7158621 104.926734,20.3386613 104.926734,18.8616633 C104.926734,17.3048276 104.703854,15.8777282 104.258093,14.5803651 C103.812333,13.283002 103.163651,12.1453144 102.312049,11.1673022 C101.460446,10.1892901 100.356024,9.42750507 98.998783,8.88194726 C97.6415416,8.33638945 96.0980122,8.06361055 94.3681947,8.06361055 C92.1061258,8.06361055 90.153428,8.54263692 88.5101014,9.50068966 C86.8667748,10.4587424 85.6459229,11.7394726 84.8475456,13.3428803 C84.0491684,14.946288 83.6499797,16.7725761 83.6499797,18.8217444 C83.6499797,20.325355 83.8795132,21.7191886 84.3385801,23.0032454 C84.7976471,24.2873022 85.4629615,25.4150101 86.3345233,26.3863692 C87.2060852,27.3577282 88.3304665,28.1228398 89.7076673,28.6817039 C91.0848682,29.240568 92.6317241,29.52 94.3482353,29.52 Z M94.3282759,25.8873834 C92.3456389,25.8873834 90.8486815,25.2287221 89.8374037,23.9113996 C88.8261258,22.5940771 88.3204868,20.8908722 88.3204868,18.801785 C88.3204868,16.6860852 88.8327789,14.969574 89.8573631,13.6522515 C90.8819473,12.334929 92.3655984,11.6762677 94.3083164,11.6762677 C96.2510345,11.6762677 97.7280325,12.334929 98.7393103,13.6522515 C99.7505882,14.969574 100.256227,16.6860852 100.256227,18.801785 C100.256227,20.8908722 99.760568,22.5940771 98.7692495,23.9113996 C97.777931,25.2287221 96.2976065,25.8873834 94.3282759,25.8873834 Z M111.780803,29.0609331 L111.780803,17.5443408 C111.780803,15.7346856 112.226564,14.3408519 113.118085,13.3628398 C114.009606,12.3848276 115.18056,11.8958215 116.630945,11.8958215 C117.455935,11.8958215 118.254312,12.0288844 119.026077,12.2950101 L119.026077,12.2950101 L119.026077,8.36300203 C118.307538,8.16340771 117.615611,8.06361055 116.950296,8.06361055 C114.941047,8.06361055 113.197923,9.20129817 111.720925,11.4766734 L111.720925,11.4766734 L111.720925,8.58255578 L106.97058,8.58255578 L107.050418,9.44081136 C107.103643,10.0129817 107.156868,10.7248682 107.210093,11.5764706 C107.263318,12.428073 107.289931,13.1333063 107.289931,13.6921704 L107.289931,13.6921704 L107.289931,29.0609331 L111.780803,29.0609331 Z" id="Visor" fill="#181922"></path>
                </g>
            </g>
        </g>
    </g>
</svg>