<?xml version="1.0" encoding="UTF-8"?>
<svg width="127px" height="234px" viewBox="0 0 127 234" version="1.1" xmlns="http://www.w3.org/2000/svg" xmlns:xlink="http://www.w3.org/1999/xlink">
    <title>Group 21</title>
    <g id="Page-1" stroke="none" stroke-width="1" fill="none" fill-rule="evenodd">
        <g id="Onepager" transform="translate(-656.000000, -3317.000000)">
            <g id="Group-21" transform="translate(658.000000, 3319.000000)">
                <g id="Group-2" fill="#2D2F3B" stroke="#A4AFCC">
                    <path d="M-23.3928571,53.3928571 L146.607143,53.3928571 C163.175685,53.3928571 176.607143,66.8243146 176.607143,83.3928571 L176.607143,146.607143 C176.607143,163.175685 163.175685,176.607143 146.607143,176.607143 L-23.3928571,176.607143 C-39.9613996,176.607143 -53.3928571,163.175685 -53.3928571,146.607143 L-53.3928571,83.3928571 C-53.3928571,66.8243146 -39.9613996,53.3928571 -23.3928571,53.3928571 Z" id="Rectangle" stroke-width="3" transform="translate(61.607143, 115.000000) rotate(90.000000) translate(-61.607143, -115.000000) "></path>
                    <rect id="Rectangle" stroke-width="2" x="53.3928571" y="197.142857" width="16.3378058" height="16.3378058" rx="3"></rect>
                    <rect id="Rectangle" stroke-width="2" x="41.0714286" y="16.4285714" width="41.0714286" height="1" rx="0.5"></rect>
                </g>
                <g id="Mapper-mobile-app" transform="translate(28.246000, 101.640000)" fill="#2D7BE7" fill-rule="nonzero">
                    <polygon id="Path" points="10.4335 10.36 10.4335 0 12.2185 0 15.7395 7.679 15.4875 7.679 18.9525 0 20.7375 0 20.7375 10.36 19.3445 10.36 19.3445 1.295 19.7085 1.295 16.2295 8.904 14.9415 8.904 11.4065 1.295 11.8265 1.295 11.8265 10.36"></polygon>
                    <path d="M24.8115,10.486 C24.0741667,10.486 23.4966667,10.297 23.079,9.919 C22.6613333,9.541 22.4525,9.02533333 22.4525,8.372 C22.4525,7.69533333 22.6811667,7.16566667 23.1385,6.783 C23.5958333,6.40033333 24.3285,6.16466667 25.3365,6.076 L27.2475,5.887 L27.3945,6.776 L25.4625,6.972 C24.9118333,7.028 24.5163333,7.15983333 24.276,7.3675 C24.0356667,7.57516667 23.9155,7.86566667 23.9155,8.239 C23.9155,8.617 24.0263333,8.9075 24.248,9.1105 C24.4696667,9.3135 24.7951667,9.415 25.2245,9.415 C25.5231667,9.415 25.8218333,9.35433333 26.1205,9.233 C26.4191667,9.11166667 26.6875,8.90866667 26.9255,8.624 L26.9255,5.432 C26.9255,5.00266667 26.8578333,4.669 26.7225,4.431 C26.5871667,4.193 26.3795,4.025 26.0995,3.927 C25.8195,3.829 25.4625,3.78 25.0285,3.78 C24.7391667,3.78 24.4125,3.80566667 24.0485,3.857 C23.6845,3.90833333 23.3251667,3.99233333 22.9705,4.109 L22.9705,2.961 C23.3111667,2.849 23.6868333,2.765 24.0975,2.709 C24.5081667,2.653 24.8931667,2.625 25.2525,2.625 C25.9478333,2.625 26.5253333,2.71483333 26.985,2.8945 C27.4446667,3.07416667 27.7876667,3.374 28.014,3.794 C28.2403333,4.214 28.3535,4.788 28.3535,5.516 L28.3535,10.36 L27.1425,10.36 L27.0375,9.541 L26.9535,9.541 C26.7108333,9.85366667 26.4016667,10.0893333 26.026,10.248 C25.6503333,10.4066667 25.2455,10.486 24.8115,10.486 Z" id="Path"></path>
                    <path d="M30.2575,13.44 L30.2575,2.744 L31.4965,2.744 L31.5945,3.577 L31.6715,3.577 C31.8955,3.29233333 32.1848333,3.0625 32.5395,2.8875 C32.8941667,2.7125 33.2978333,2.625 33.7505,2.625 C34.3011667,2.625 34.8063333,2.74866667 35.266,2.996 C35.7256667,3.24333333 36.0943333,3.6435 36.372,4.1965 C36.6496667,4.7495 36.7885,5.488 36.7885,6.412 C36.7885,7.31733333 36.6391667,8.07216667 36.3405,8.6765 C36.0418333,9.28083333 35.5996667,9.73466667 35.014,10.038 C34.4283333,10.3413333 33.7061667,10.493 32.8475,10.493 C32.6561667,10.493 32.4625,10.4848333 32.2665,10.4685 C32.0705,10.4521667 31.8885,10.4323333 31.7205,10.409 L31.7205,13.44 L30.2575,13.44 Z M32.8615,9.338 C33.6735,9.338 34.2836667,9.11983333 34.692,8.6835 C35.1003333,8.24716667 35.3045,7.52966667 35.3045,6.531 C35.3045,5.83566667 35.2216667,5.29433333 35.056,4.907 C34.8903333,4.51966667 34.6616667,4.24666667 34.37,4.088 C34.0783333,3.92933333 33.7458333,3.85 33.3725,3.85 C33.0691667,3.85 32.7693333,3.91416667 32.473,4.0425 C32.1766667,4.17083333 31.9258333,4.37733333 31.7205,4.662 L31.7205,9.219 C31.8745,9.25633333 32.0541667,9.2855 32.2595,9.3065 C32.4648333,9.3275 32.6655,9.338 32.8615,9.338 Z" id="Shape"></path>
                    <path d="M38.3775,13.44 L38.3775,2.744 L39.6165,2.744 L39.7145,3.577 L39.7915,3.577 C40.0155,3.29233333 40.3048333,3.0625 40.6595,2.8875 C41.0141667,2.7125 41.4178333,2.625 41.8705,2.625 C42.4211667,2.625 42.9263333,2.74866667 43.386,2.996 C43.8456667,3.24333333 44.2143333,3.6435 44.492,4.1965 C44.7696667,4.7495 44.9085,5.488 44.9085,6.412 C44.9085,7.31733333 44.7591667,8.07216667 44.4605,8.6765 C44.1618333,9.28083333 43.7196667,9.73466667 43.134,10.038 C42.5483333,10.3413333 41.8261667,10.493 40.9675,10.493 C40.7761667,10.493 40.5825,10.4848333 40.3865,10.4685 C40.1905,10.4521667 40.0085,10.4323333 39.8405,10.409 L39.8405,13.44 L38.3775,13.44 Z M40.9815,9.338 C41.7935,9.338 42.4036667,9.11983333 42.812,8.6835 C43.2203333,8.24716667 43.4245,7.52966667 43.4245,6.531 C43.4245,5.83566667 43.3416667,5.29433333 43.176,4.907 C43.0103333,4.51966667 42.7816667,4.24666667 42.49,4.088 C42.1983333,3.92933333 41.8658333,3.85 41.4925,3.85 C41.1891667,3.85 40.8893333,3.91416667 40.593,4.0425 C40.2966667,4.17083333 40.0458333,4.37733333 39.8405,4.662 L39.8405,9.219 C39.9945,9.25633333 40.1741667,9.2855 40.3795,9.3065 C40.5848333,9.3275 40.7855,9.338 40.9815,9.338 Z" id="Shape"></path>
                    <path d="M49.9695,10.5 C49.1295,10.5 48.4283333,10.3646667 47.866,10.094 C47.3036667,9.82333333 46.8825,9.3975 46.6025,8.8165 C46.3225,8.2355 46.1825,7.48066667 46.1825,6.552 C46.1825,5.67466667 46.312,4.9455 46.571,4.3645 C46.83,3.7835 47.1998333,3.34833333 47.6805,3.059 C48.1611667,2.76966667 48.7351667,2.625 49.4025,2.625 C50.0558333,2.625 50.61,2.76966667 51.065,3.059 C51.52,3.34833333 51.8653333,3.78583333 52.101,4.3715 C52.3366667,4.95716667 52.4545,5.69566667 52.4545,6.587 L52.4545,7.007 L46.9945,7.007 L46.9945,6.083 L51.3555,6.083 L51.0755,6.237 C51.0755,5.593 51.0101667,5.07966667 50.8795,4.697 C50.7488333,4.31433333 50.5575,4.04016667 50.3055,3.8745 C50.0535,3.70883333 49.7478333,3.626 49.3885,3.626 C49.0291667,3.626 48.72,3.70766667 48.461,3.871 C48.202,4.03433333 48.0025,4.30733333 47.8625,4.69 C47.7225,5.07266667 47.6525,5.58833333 47.6525,6.237 L47.6525,6.783 C47.6525,7.413 47.7388333,7.91583333 47.9115,8.2915 C48.0841667,8.66716667 48.3548333,8.93666667 48.7235,9.1 C49.0921667,9.26333333 49.5705,9.345 50.1585,9.345 C50.4478333,9.345 50.7511667,9.3205 51.0685,9.2715 C51.3858333,9.2225 51.7171667,9.15133333 52.0625,9.058 L52.0625,10.206 C51.6845,10.3086667 51.3251667,10.3833333 50.9845,10.43 C50.6438333,10.4766667 50.3055,10.5 49.9695,10.5 Z" id="Path"></path>
                    <path d="M53.9455,10.36 L53.9455,2.744 L55.1565,2.744 L55.2755,3.752 L55.3525,3.752 C55.5998333,3.388 55.9148333,3.115 56.2975,2.933 C56.6801667,2.751 57.0861667,2.66 57.5155,2.66 C57.6275,2.66 57.7348333,2.66466667 57.8375,2.674 C57.9401667,2.68333333 58.0358333,2.69733333 58.1245,2.716 L58.1245,4.053 C58.0125,4.03433333 57.8993333,4.0215 57.785,4.0145 C57.6706667,4.0075 57.5551667,4.004 57.4385,4.004 C57.1958333,4.004 56.9473333,4.04016667 56.693,4.1125 C56.4386667,4.18483333 56.1995,4.29333333 55.9755,4.438 C55.7515,4.58266667 55.5625,4.76233333 55.4085,4.977 L55.4085,10.36 L53.9455,10.36 Z" id="Path"></path>
                    <path d="M0,27.36 L0,19.744 L1.218,19.744 L1.323,20.584 L1.407,20.584 C1.69166667,20.2666667 2.0195,20.0275 2.3905,19.8665 C2.7615,19.7055 3.15933333,19.625 3.584,19.625 C4.018,19.625 4.40533333,19.7148333 4.746,19.8945 C5.08666667,20.0741667 5.355,20.3646667 5.551,20.766 C5.747,21.1673333 5.845,21.704 5.845,22.376 L5.845,27.36 L4.41,27.36 L4.41,22.488 C4.41,21.8906667 4.2945,21.4776667 4.0635,21.249 C3.8325,21.0203333 3.52566667,20.906 3.143,20.906 C2.95166667,20.906 2.75333333,20.9375 2.548,21.0005 C2.34266667,21.0635 2.14666667,21.1626667 1.96,21.298 C1.77333333,21.4333333 1.60766667,21.6106667 1.463,21.83 L1.463,27.36 L0,27.36 Z M8.743,27.36 L8.743,22.488 C8.743,21.8906667 8.62166667,21.4776667 8.379,21.249 C8.13633333,21.0203333 7.82366667,20.906 7.441,20.906 C7.245,20.906 7.0385,20.9386667 6.8215,21.004 C6.6045,21.0693333 6.3945,21.179 6.1915,21.333 C5.9885,21.487 5.81466667,21.6946667 5.67,21.956 L5.334,20.885 C5.698,20.423 6.1005,20.0975 6.5415,19.9085 C6.9825,19.7195 7.413,19.625 7.833,19.625 C8.29033333,19.625 8.6975,19.716 9.0545,19.898 C9.4115,20.08 9.6915,20.3751667 9.8945,20.7835 C10.0975,21.1918333 10.199,21.7366667 10.199,22.418 L10.199,27.36 L8.743,27.36 Z" id="Shape"></path>
                    <path d="M15.106,27.5 C14.42,27.5 13.8238333,27.36 13.3175,27.08 C12.8111667,26.8 12.418,26.3706667 12.138,25.792 C11.858,25.2133333 11.718,24.4713333 11.718,23.566 C11.718,22.656 11.8556667,21.9116667 12.131,21.333 C12.4063333,20.7543333 12.7971667,20.325 13.3035,20.045 C13.8098333,19.765 14.4106667,19.625 15.106,19.625 C15.8013333,19.625 16.4021667,19.765 16.9085,20.045 C17.4148333,20.325 17.8056667,20.7543333 18.081,21.333 C18.3563333,21.9116667 18.494,22.6536667 18.494,23.559 C18.494,24.4596667 18.3551667,25.2016667 18.0775,25.785 C17.7998333,26.3683333 17.4066667,26.8 16.898,27.08 C16.3893333,27.36 15.792,27.5 15.106,27.5 Z M15.106,26.345 C15.498,26.345 15.8363333,26.2598333 16.121,26.0895 C16.4056667,25.9191667 16.625,25.6321667 16.779,25.2285 C16.933,24.8248333 17.01,24.273 17.01,23.573 C17.01,22.8636667 16.933,22.306 16.779,21.9 C16.625,21.494 16.4056667,21.2058333 16.121,21.0355 C15.8363333,20.8651667 15.498,20.78 15.106,20.78 C14.714,20.78 14.3756667,20.864 14.091,21.032 C13.8063333,21.2 13.587,21.4858333 13.433,21.8895 C13.279,22.2931667 13.202,22.845 13.202,23.545 C13.202,24.2543333 13.2778333,24.812 13.4295,25.218 C13.5811667,25.624 13.8005,25.9133333 14.0875,26.086 C14.3745,26.2586667 14.714,26.345 15.106,26.345 Z" id="Shape"></path>
                    <path d="M22.575,27.493 C22.155,27.493 21.7245,27.4626667 21.2835,27.402 C20.8425,27.3413333 20.4306667,27.2503333 20.048,27.129 L20.048,16.048 L21.511,16.048 L21.511,20.514 L21.588,20.514 C21.8166667,20.248 22.106,20.0333333 22.456,19.87 C22.806,19.7066667 23.205,19.625 23.653,19.625 C24.185,19.625 24.6726667,19.751 25.116,20.003 C25.5593333,20.255 25.914,20.6575 26.18,21.2105 C26.446,21.7635 26.579,22.495 26.579,23.405 C26.579,24.7723333 26.243,25.7955 25.571,26.4745 C24.899,27.1535 23.9003333,27.493 22.575,27.493 Z M22.694,26.345 C23.4826667,26.345 24.08,26.1256667 24.486,25.687 C24.892,25.2483333 25.095,24.5296667 25.095,23.531 C25.095,22.8356667 25.0121667,22.2943333 24.8465,21.907 C24.6808333,21.5196667 24.4521667,21.2478333 24.1605,21.0915 C23.8688333,20.9351667 23.5363333,20.857 23.163,20.857 C22.855,20.857 22.554,20.9176667 22.26,21.039 C21.966,21.1603333 21.7163333,21.3493333 21.511,21.606 L21.511,26.191 C21.665,26.233 21.8458333,26.2691667 22.0535,26.2995 C22.2611667,26.3298333 22.4746667,26.345 22.694,26.345 Z" id="Shape"></path>
                    <path d="M28.133,27.36 L28.133,19.744 L29.596,19.744 L29.596,27.36 L28.133,27.36 Z M28.868,18.26 C28.5506667,18.26 28.3103333,18.1853333 28.147,18.036 C27.9836667,17.8866667 27.902,17.6813333 27.902,17.42 C27.902,17.1493333 27.9836667,16.9393333 28.147,16.79 C28.3103333,16.6406667 28.5506667,16.566 28.868,16.566 C29.19,16.566 29.4315,16.6406667 29.5925,16.79 C29.7535,16.9393333 29.834,17.1493333 29.834,17.42 C29.834,17.6813333 29.7535,17.8866667 29.5925,18.036 C29.4315,18.1853333 29.19,18.26 28.868,18.26 Z" id="Shape"></path>
                    <polygon id="Path" points="31.577 27.36 31.577 16.048 33.04 16.048 33.04 27.36"></polygon>
                    <path d="M38.416,27.5 C37.576,27.5 36.8748333,27.3646667 36.3125,27.094 C35.7501667,26.8233333 35.329,26.3975 35.049,25.8165 C34.769,25.2355 34.629,24.4806667 34.629,23.552 C34.629,22.6746667 34.7585,21.9455 35.0175,21.3645 C35.2765,20.7835 35.6463333,20.3483333 36.127,20.059 C36.6076667,19.7696667 37.1816667,19.625 37.849,19.625 C38.5023333,19.625 39.0565,19.7696667 39.5115,20.059 C39.9665,20.3483333 40.3118333,20.7858333 40.5475,21.3715 C40.7831667,21.9571667 40.901,22.6956667 40.901,23.587 L40.901,24.007 L35.441,24.007 L35.441,23.083 L39.802,23.083 L39.522,23.237 C39.522,22.593 39.4566667,22.0796667 39.326,21.697 C39.1953333,21.3143333 39.004,21.0401667 38.752,20.8745 C38.5,20.7088333 38.1943333,20.626 37.835,20.626 C37.4756667,20.626 37.1665,20.7076667 36.9075,20.871 C36.6485,21.0343333 36.449,21.3073333 36.309,21.69 C36.169,22.0726667 36.099,22.5883333 36.099,23.237 L36.099,23.783 C36.099,24.413 36.1853333,24.9158333 36.358,25.2915 C36.5306667,25.6671667 36.8013333,25.9366667 37.17,26.1 C37.5386667,26.2633333 38.017,26.345 38.605,26.345 C38.8943333,26.345 39.1976667,26.3205 39.515,26.2715 C39.8323333,26.2225 40.1636667,26.1513333 40.509,26.058 L40.509,27.206 C40.131,27.3086667 39.7716667,27.3833333 39.431,27.43 C39.0903333,27.4766667 38.752,27.5 38.416,27.5 Z" id="Path"></path>
                    <path d="M47.796,27.486 C47.0586667,27.486 46.4811667,27.297 46.0635,26.919 C45.6458333,26.541 45.437,26.0253333 45.437,25.372 C45.437,24.6953333 45.6656667,24.1656667 46.123,23.783 C46.5803333,23.4003333 47.313,23.1646667 48.321,23.076 L50.232,22.887 L50.379,23.776 L48.447,23.972 C47.8963333,24.028 47.5008333,24.1598333 47.2605,24.3675 C47.0201667,24.5751667 46.9,24.8656667 46.9,25.239 C46.9,25.617 47.0108333,25.9075 47.2325,26.1105 C47.4541667,26.3135 47.7796667,26.415 48.209,26.415 C48.5076667,26.415 48.8063333,26.3543333 49.105,26.233 C49.4036667,26.1116667 49.672,25.9086667 49.91,25.624 L49.91,22.432 C49.91,22.0026667 49.8423333,21.669 49.707,21.431 C49.5716667,21.193 49.364,21.025 49.084,20.927 C48.804,20.829 48.447,20.78 48.013,20.78 C47.7236667,20.78 47.397,20.8056667 47.033,20.857 C46.669,20.9083333 46.3096667,20.9923333 45.955,21.109 L45.955,19.961 C46.2956667,19.849 46.6713333,19.765 47.082,19.709 C47.4926667,19.653 47.8776667,19.625 48.237,19.625 C48.9323333,19.625 49.5098333,19.7148333 49.9695,19.8945 C50.4291667,20.0741667 50.7721667,20.374 50.9985,20.794 C51.2248333,21.214 51.338,21.788 51.338,22.516 L51.338,27.36 L50.127,27.36 L50.022,26.541 L49.938,26.541 C49.6953333,26.8536667 49.3861667,27.0893333 49.0105,27.248 C48.6348333,27.4066667 48.23,27.486 47.796,27.486 Z" id="Path"></path>
                    <path d="M53.242,30.44 L53.242,19.744 L54.481,19.744 L54.579,20.577 L54.656,20.577 C54.88,20.2923333 55.1693333,20.0625 55.524,19.8875 C55.8786667,19.7125 56.2823333,19.625 56.735,19.625 C57.2856667,19.625 57.7908333,19.7486667 58.2505,19.996 C58.7101667,20.2433333 59.0788333,20.6435 59.3565,21.1965 C59.6341667,21.7495 59.773,22.488 59.773,23.412 C59.773,24.3173333 59.6236667,25.0721667 59.325,25.6765 C59.0263333,26.2808333 58.5841667,26.7346667 57.9985,27.038 C57.4128333,27.3413333 56.6906667,27.493 55.832,27.493 C55.6406667,27.493 55.447,27.4848333 55.251,27.4685 C55.055,27.4521667 54.873,27.4323333 54.705,27.409 L54.705,30.44 L53.242,30.44 Z M55.846,26.338 C56.658,26.338 57.2681667,26.1198333 57.6765,25.6835 C58.0848333,25.2471667 58.289,24.5296667 58.289,23.531 C58.289,22.8356667 58.2061667,22.2943333 58.0405,21.907 C57.8748333,21.5196667 57.6461667,21.2466667 57.3545,21.088 C57.0628333,20.9293333 56.7303333,20.85 56.357,20.85 C56.0536667,20.85 55.7538333,20.9141667 55.4575,21.0425 C55.1611667,21.1708333 54.9103333,21.3773333 54.705,21.662 L54.705,26.219 C54.859,26.2563333 55.0386667,26.2855 55.244,26.3065 C55.4493333,26.3275 55.65,26.338 55.846,26.338 Z" id="Shape"></path>
                    <path d="M61.362,30.44 L61.362,19.744 L62.601,19.744 L62.699,20.577 L62.776,20.577 C63,20.2923333 63.2893333,20.0625 63.644,19.8875 C63.9986667,19.7125 64.4023333,19.625 64.855,19.625 C65.4056667,19.625 65.9108333,19.7486667 66.3705,19.996 C66.8301667,20.2433333 67.1988333,20.6435 67.4765,21.1965 C67.7541667,21.7495 67.893,22.488 67.893,23.412 C67.893,24.3173333 67.7436667,25.0721667 67.445,25.6765 C67.1463333,26.2808333 66.7041667,26.7346667 66.1185,27.038 C65.5328333,27.3413333 64.8106667,27.493 63.952,27.493 C63.7606667,27.493 63.567,27.4848333 63.371,27.4685 C63.175,27.4521667 62.993,27.4323333 62.825,27.409 L62.825,30.44 L61.362,30.44 Z M63.966,26.338 C64.778,26.338 65.3881667,26.1198333 65.7965,25.6835 C66.2048333,25.2471667 66.409,24.5296667 66.409,23.531 C66.409,22.8356667 66.3261667,22.2943333 66.1605,21.907 C65.9948333,21.5196667 65.7661667,21.2466667 65.4745,21.088 C65.1828333,20.9293333 64.8503333,20.85 64.477,20.85 C64.1736667,20.85 63.8738333,20.9141667 63.5775,21.0425 C63.2811667,21.1708333 63.0303333,21.3773333 62.825,21.662 L62.825,26.219 C62.979,26.2563333 63.1586667,26.2855 63.364,26.3065 C63.5693333,26.3275 63.77,26.338 63.966,26.338 Z" id="Shape"></path>
                </g>
            </g>
        </g>
    </g>
</svg>