<?xml version="1.0" encoding="UTF-8"?>
<svg width="90px" height="90px" viewBox="0 0 90 90" version="1.1" xmlns="http://www.w3.org/2000/svg" xmlns:xlink="http://www.w3.org/1999/xlink">
    <title>Group 22</title>
    <g id="Page-1" stroke="none" stroke-width="1" fill="none" fill-rule="evenodd">
        <g id="Onepager" transform="translate(-740.000000, -2069.000000)">
            <g id="Group-22" transform="translate(740.000000, 2069.000000)">
                <g id="Rectangle-2" fill="#2D7BE7" opacity="0.3">
                    <rect id="Rectangle" x="0" y="0" width="90" height="90" rx="30"></rect>
                </g>
                <rect id="Rectangle" fill="#007DFE" x="10" y="10" width="70" height="70" rx="20"></rect>
                <path d="M37.1781818,63 C31.5619871,62.9954962 27.0090202,58.4461892 27,52.83 C27,51.9262613 27.732625,51.1936364 28.6363636,51.1936364 C29.5401023,51.1936364 30.2727273,51.9262613 30.2727273,52.83 C30.2772422,56.6405816 33.3675975,59.7272754 37.1781818,59.7272727 C38.0819205,59.7272727 38.8145455,60.4598977 38.8145455,61.3636364 C38.8145455,62.267375 38.0819205,63 37.1781818,63 Z" id="Path" fill="#FFFFFF" fill-rule="nonzero"></path>
                <path d="M52.83,63 C51.9262613,63 51.1936364,62.267375 51.1936364,61.3636364 C51.1936364,60.4598977 51.9262613,59.7272727 52.83,59.7272727 C56.6373895,59.7227643 59.7227643,56.6373895 59.7272727,52.83 C59.7272727,51.9262613 60.4598977,51.1936364 61.3636364,51.1936364 C62.267375,51.1936364 63,51.9262613 63,52.83 C62.9909904,58.4429998 58.4429998,62.9909904 52.83,63 L52.83,63 Z" id="Path" fill="#FFFFFF" fill-rule="nonzero"></path>
                <path d="M61.3636364,38.8063636 C60.4598977,38.8063636 59.7272727,38.0737387 59.7272727,37.17 C59.7227643,33.3626105 56.6373895,30.2772357 52.83,30.2727273 C51.9262613,30.2727273 51.1936364,29.5401023 51.1936364,28.6363636 C51.1936364,27.732625 51.9262613,27 52.83,27 C58.4429998,27.0090096 62.9909904,31.5570002 63,37.17 C63,38.0737387 62.267375,38.8063636 61.3636364,38.8063636 Z" id="Path" fill="#FFFFFF" fill-rule="nonzero"></path>
                <path d="M28.6363636,38.8063841 C27.732625,38.8063841 27,38.0737387 27,37.17 C27.0090202,31.5538108 31.5619871,27.0045038 37.1781818,27 C38.0819205,27 38.8145455,27.732625 38.8145455,28.6363636 C38.8145455,29.5401023 38.0819205,30.2727273 37.1781818,30.2727273 C33.3707923,30.2772357 30.2854175,33.3626105 30.2809091,37.17 C30.2809145,37.6054119 30.1073898,38.0228722 29.7987402,38.3299862 C29.4900906,38.6371002 29.0717701,38.8085407 28.6363636,38.8063841 Z" id="Path" fill="#FFFFFF" fill-rule="nonzero"></path>
                <path d="M50.1872727,50.3018182 L39.9272727,50.3018182 C36.990122,50.3018182 34.6090909,47.9207871 34.6090909,44.9836364 C34.6090909,42.0464856 36.990122,39.6654545 39.9272727,39.6654545 L50.1872727,39.6654545 C53.1244234,39.6654545 55.5054545,42.0464856 55.5054545,44.9836364 C55.5054545,47.9207871 53.1244234,50.3018182 50.1872727,50.3018182 Z M39.9272727,42.9381818 C38.7975994,42.9381818 37.8818182,43.853963 37.8818182,44.9836364 C37.8818182,46.1133097 38.7975994,47.0290909 39.9272727,47.0290909 L50.1872727,47.0290909 C51.3169461,47.0290909 52.2327273,46.1133097 52.2327273,44.9836364 C52.2327273,43.853963 51.3169461,42.9381818 50.1872727,42.9381818 L39.9272727,42.9381818 Z" id="Shape" fill="#FFFFFF" fill-rule="nonzero"></path>
            </g>
        </g>
    </g>
</svg>