<?xml version="1.0" encoding="UTF-8"?>
<svg width="90px" height="90px" viewBox="0 0 90 90" version="1.1" xmlns="http://www.w3.org/2000/svg" xmlns:xlink="http://www.w3.org/1999/xlink">
    <title>Group 23</title>
    <g id="Page-1" stroke="none" stroke-width="1" fill="none" fill-rule="evenodd">
        <g id="Onepager" transform="translate(-740.000000, -2189.000000)">
            <g id="Group-23" transform="translate(740.000000, 2189.000000)">
                <g id="Rectangle-2" fill="#2D7BE7" opacity="0.3">
                    <rect id="Rectangle" x="0" y="0" width="90" height="90" rx="30"></rect>
                </g>
                <rect id="Rectangle" fill="#007DFE" x="10" y="10" width="70" height="70" rx="20"></rect>
                <path d="M31,53 C31,50.7908 32.79086,49 35,49 L41,49 C43.2092,49 45,50.7908 45,53 L45,59 C45,61.2092 43.2092,63 41,63 L35,63 C32.79086,63 31,61.2092 31,59 L31,53 Z M41,53 L35,53 L35,59 L41,59 L41,53 Z" id="Shape" stroke="#2D7BE7" stroke-width="1.5" fill="#FFFFFF"></path>
                <path d="M27,31 C27,28.79086 28.79086,27 31,27 L41,27 C43.2092,27 45,28.79086 45,31 L45,41 C45,43.2092 43.2092,45 41,45 L31,45 C28.79086,45 27,43.2092 27,41 L27,31 Z M41,31 L31,31 L31,41 L41,41 L41,31 Z" id="Shape" stroke="#2D7BE7" stroke-width="1.5" fill="#FFFFFF"></path>
                <path d="M49,53 C49,50.7908 50.7908,49 53,49 L59,49 C61.2092,49 63,50.7908 63,53 L63,59 C63,61.2092 61.2092,63 59,63 L53,63 C50.7908,63 49,61.2092 49,59 L49,53 Z M59,53 L53,53 L53,59 L59,59 L59,53 Z" id="Shape" stroke="#2D7BE7" stroke-width="1.5" fill="#FFFFFF"></path>
                <path d="M49,35 C49,32.79086 50.7908,31 53,31 L59,31 C61.2092,31 63,32.79086 63,35 L63,41 C63,43.2092 61.2092,45 59,45 L53,45 C50.7908,45 49,43.2092 49,41 L49,35 Z M59,35 L53,35 L53,41 L59,41 L59,35 Z" id="Shape" stroke="#2D7BE7" stroke-width="1.5" fill="#FFFFFF"></path>
            </g>
        </g>
    </g>
</svg>