<?xml version="1.0" encoding="UTF-8"?>
<svg width="230px" height="32px" viewBox="0 0 230 32" version="1.1" xmlns="http://www.w3.org/2000/svg" xmlns:xlink="http://www.w3.org/1999/xlink">
    <title>Group 34</title>
    <g id="Page-1" stroke="none" stroke-width="1" fill="none" fill-rule="evenodd">
        <g id="Onepager" transform="translate(-150.000000, -3018.000000)" fill-rule="nonzero">
            <g id="Group-34" transform="translate(150.000000, 3018.683594)">
                <g id="Studio" transform="translate(123.558594, 0.000000)" fill="#FFFFFF">
                    <path d="M18.3398438,21.6992188 C18.3398438,24.2382812 17.5065104,26.2109375 15.8398438,27.6171875 C14.1731771,29.0234375 11.9270833,29.7265625 9.1015625,29.7265625 C7.90364583,29.7265625 6.76757812,29.6061198 5.69335938,29.3652344 C4.61914062,29.124349 3.70768229,28.8085938 2.95898437,28.4179688 C2.21028646,28.0273438 1.62760417,27.6888021 1.2109375,27.4023438 C0.794270833,27.1158854 0.423177083,26.8294271 0.09765625,26.5429688 L1.40625,24.4726562 C3.68489583,26.3736979 6.22395833,27.3242188 9.0234375,27.3242188 C11.0677083,27.3242188 12.6464844,26.8294271 13.7597656,25.8398438 C14.8730469,24.8502604 15.4296875,23.4895833 15.4296875,21.7578125 C15.4296875,20.7161458 15.2669271,19.8763021 14.9414062,19.2382812 C14.6158854,18.6002604 14.0397135,18.0403646 13.2128906,17.5585938 C12.3860677,17.0768229 11.1783854,16.6080729 9.58984375,16.1523438 C9.53776042,16.1393229 9.33919271,16.0839844 8.99414062,15.9863281 C8.64908854,15.8886719 8.28125,15.7910156 7.890625,15.6933594 C7.5,15.5957031 7.29166667,15.5403646 7.265625,15.5273438 C6.015625,15.1757813 4.96419271,14.7949219 4.11132812,14.3847656 C3.25846354,13.9746094 2.50976562,13.4667969 1.86523438,12.8613281 C1.22070312,12.2558594 0.748697917,11.5332031 0.44921875,10.6933594 C0.149739583,9.85351562 0,8.8671875 0,7.734375 C0,5.41666667 0.826822917,3.61328125 2.48046875,2.32421875 C4.13411458,1.03515625 6.34765625,0.390625 9.12109375,0.390625 C10.1106771,0.390625 11.0416667,0.465494792 11.9140625,0.615234375 C12.7864583,0.764973958 13.4895833,0.930989583 14.0234375,1.11328125 C14.5572917,1.29557292 15.0813802,1.53645833 15.5957031,1.8359375 C16.110026,2.13541667 16.4615885,2.36328125 16.6503906,2.51953125 C16.8391927,2.67578125 17.0703125,2.87760417 17.34375,3.125 L15.9570312,5.1171875 C15.3450521,4.51822917 14.4856771,3.98111979 13.3789062,3.50585938 C12.2721354,3.03059896 10.9244792,2.79296875 9.3359375,2.79296875 C7.3828125,2.79296875 5.84309896,3.21289062 4.71679688,4.05273438 C3.59049479,4.89257812 3.02734375,6.09375 3.02734375,7.65625 C3.02734375,9.19270833 3.359375,10.3190104 4.0234375,11.0351562 C4.6875,11.7513021 6.00911458,12.3893229 7.98828125,12.9492188 C8.05338542,12.9752604 8.4375,13.0826823 9.140625,13.2714844 C9.84375,13.4602865 10.2213542,13.5611979 10.2734375,13.5742188 C10.9244792,13.7565104 11.5201823,13.9388021 12.0605469,14.1210938 C12.6009115,14.3033854 13.1054688,14.4954427 13.5742188,14.6972656 C14.0429688,14.8990885 14.4661458,15.1041667 14.84375,15.3125 C15.2213542,15.5208333 15.5664062,15.7421875 15.8789062,15.9765625 C16.1914062,16.2109375 16.468099,16.4550781 16.7089844,16.7089844 C16.9498698,16.9628906 17.1614583,17.2330729 17.34375,17.5195312 C17.5260417,17.8059896 17.6822917,18.1022135 17.8125,18.4082031 C17.9427083,18.7141927 18.046875,19.0429688 18.125,19.3945312 C18.203125,19.7460938 18.2584635,20.1074219 18.2910156,20.4785156 C18.3235677,20.8496094 18.3398438,21.2565104 18.3398438,21.6992188 Z" id="Path"></path>
                    <path d="M30.9882812,29.3359375 C30.9231771,29.3359375 30.7050781,29.3326823 30.3339844,29.3261719 C29.9628906,29.3196615 29.7513021,29.3164062 29.6992188,29.3164062 C28.7356771,29.2903646 27.8990885,29.2122396 27.1894531,29.0820312 C26.4798177,28.9518229 25.8873698,28.75 25.4121094,28.4765625 C24.936849,28.203125 24.5527344,27.9003906 24.2597656,27.5683594 C23.9667969,27.2363281 23.7421875,26.8033854 23.5859375,26.2695312 C23.4296875,25.7356771 23.3255208,25.2018229 23.2734375,24.6679688 C23.2213542,24.1341146 23.1953125,23.4700521 23.1953125,22.6757812 L23.1953125,11.1132812 L19.3085938,11.1132812 L19.3085938,9.27734375 L23.234375,9.27734375 L23.234375,3.828125 L25.9492188,3.02734375 L25.9492188,9.27734375 L30.9296875,9.27734375 L30.9296875,11.1132812 L25.9492188,11.1132812 L25.9492188,22.7929688 C25.9492188,23.4570312 25.9654948,23.9908854 25.9980469,24.3945312 C26.030599,24.7981771 26.1152344,25.1790365 26.2519531,25.5371094 C26.3886719,25.8951823 26.5579427,26.1621094 26.7597656,26.3378906 C26.9615885,26.5136719 27.2643229,26.6666667 27.6679688,26.796875 C28.0716146,26.9270833 28.5273438,27.0117188 29.0351562,27.0507812 C29.5429688,27.0898438 30.1940104,27.109375 30.9882812,27.109375 L30.9882812,29.3359375 Z" id="Path"></path>
                    <path d="M42.015625,29.7851562 C39.4765625,29.7851562 37.5690104,29.0592448 36.2929688,27.6074219 C35.0169271,26.155599 34.3789062,24.1080729 34.3789062,21.4648438 L34.3789062,9.27734375 L37.1328125,9.27734375 L37.1328125,21.5039062 C37.1328125,23.4960938 37.5690104,24.9967448 38.4414062,26.0058594 C39.3138021,27.014974 40.6028646,27.5195312 42.3085938,27.5195312 C43.3372396,27.5195312 44.28125,27.34375 45.140625,26.9921875 C46,26.640625 46.6933594,26.188151 47.2207031,25.6347656 C47.7480469,25.0813802 48.1582031,24.4824219 48.4511719,23.8378906 C48.7441406,23.1933594 48.890625,22.5520833 48.890625,21.9140625 L48.890625,9.27734375 L51.6640625,9.27734375 L51.6640625,24.6484375 C51.6640625,26.3671875 51.7096354,27.9231771 51.8007812,29.3164062 L49.0859375,29.3164062 L48.9492188,25.8398438 C48.2460938,27.0377604 47.3151042,27.9947917 46.15625,28.7109375 C44.9973958,29.4270833 43.6171875,29.7851562 42.015625,29.7851562 Z" id="Path"></path>
                    <path d="M64.78125,27.4609375 C66.96875,27.4609375 68.6842448,26.7089844 69.9277344,25.2050781 C71.171224,23.7011719 71.7929688,21.6796875 71.7929688,19.140625 C71.7929688,16.7057292 71.1679688,14.7460938 69.9179688,13.2617188 C68.6679688,11.7773438 66.96875,11.0351562 64.8203125,11.0351562 C62.75,11.0351562 61.1354167,11.7773438 59.9765625,13.2617188 C58.8177083,14.7460938 58.2382812,16.7317708 58.2382812,19.21875 C58.2382812,21.7317708 58.8079427,23.733724 59.9472656,25.2246094 C61.0865885,26.7154948 62.6979167,27.4609375 64.78125,27.4609375 Z M64.5273438,29.7265625 C61.8059896,29.7265625 59.6054688,28.7760417 57.9257812,26.875 C56.2460938,24.9739583 55.40625,22.4348958 55.40625,19.2578125 C55.40625,16.1067708 56.2363281,13.5709635 57.8964844,11.6503906 C59.5566406,9.72981771 61.7994792,8.76953125 64.625,8.76953125 C66.2786458,8.76953125 67.75,9.16666667 69.0390625,9.9609375 C70.328125,10.7552083 71.2330729,11.7708333 71.7539062,13.0078125 L71.7539062,0 L74.5078125,0 L74.5078125,24.1015625 C74.5208333,25 74.5664062,26.7382812 74.6445312,29.3164062 L71.8515625,29.3164062 L71.7734375,25.2734375 C71.2916667,26.5755208 70.40625,27.6432292 69.1171875,28.4765625 C67.828125,29.3098958 66.2981771,29.7265625 64.5273438,29.7265625 Z" id="Shape"></path>
                    <path d="M79.65625,3.61328125 L79.65625,0.87890625 L82.390625,0.87890625 L82.390625,3.61328125 L79.65625,3.61328125 Z M79.6367188,29.3164062 L79.6367188,9.27734375 L82.390625,9.27734375 L82.390625,29.3164062 L79.6367188,29.3164062 Z" id="Shape"></path>
                    <path d="M96.1523438,29.7265625 C92.9882812,29.7265625 90.4882812,28.7760417 88.6523438,26.875 C86.8164062,24.9739583 85.8984375,22.4609375 85.8984375,19.3359375 C85.8984375,16.1458333 86.8196615,13.5872396 88.6621094,11.6601562 C90.5045573,9.73307292 93.0078125,8.76953125 96.171875,8.76953125 C99.3359375,8.76953125 101.826172,9.73307292 103.642578,11.6601562 C105.458984,13.5872396 106.367188,16.1458333 106.367188,19.3359375 C106.367188,22.4609375 105.452474,24.9739583 103.623047,26.875 C101.79362,28.7760417 99.3033854,29.7265625 96.1523438,29.7265625 Z M96.1523438,27.4609375 C98.4830729,27.4609375 100.289714,26.7252604 101.572266,25.2539062 C102.854818,23.7825521 103.496094,21.8098958 103.496094,19.3359375 C103.496094,16.796875 102.854818,14.7786458 101.572266,13.28125 C100.289714,11.7838542 98.4830729,11.0351562 96.1523438,11.0351562 C93.8085938,11.0351562 91.9921875,11.7838542 90.703125,13.28125 C89.4140625,14.7786458 88.7695312,16.796875 88.7695312,19.3359375 C88.7695312,21.8098958 89.4140625,23.7825521 90.703125,25.2539062 C91.9921875,26.7252604 93.8085938,27.4609375 96.1523438,27.4609375 Z" id="Shape"></path>
                </g>
                <g id="arVisor" transform="translate(-0.000000, 1.316406)">
                    <path d="M9.91983773,29.52 C11.2903854,29.52 12.5112373,29.1973225 13.5823935,28.5519675 C14.6535497,27.9066126 15.4951724,27.0516836 16.1072617,25.9871805 L16.1072617,25.9871805 L16.1072617,29.0609331 L20.558215,29.0609331 L20.558215,8.58255578 L16.1870994,8.58255578 L16.1870994,11.2571197 C15.5483976,10.2857606 14.6967951,9.51066937 13.6322921,8.93184584 C12.567789,8.35302231 11.3569168,8.06361055 9.99967546,8.06361055 C8.44283976,8.06361055 7.02239351,8.36300203 5.73833671,8.96178499 C4.45427992,9.56056795 3.39975659,10.3655984 2.57476673,11.3768763 C1.74977688,12.3881542 1.11440162,13.5458012 0.668640974,14.8498174 C0.222880325,16.1538337 0,17.5243813 0,18.9614604 C0,20.3320081 0.209574037,21.6393509 0.62872211,22.8834888 C1.04787018,24.1276268 1.65663286,25.2486815 2.45501014,26.2466531 C3.25338742,27.2446247 4.29793103,28.0396755 5.58864097,28.6318053 C6.87935091,29.2239351 8.32308316,29.52 9.91983773,29.52 Z M10.5385801,25.8873834 C8.52933063,25.8873834 7.01574037,25.2287221 5.99780933,23.9113996 C4.9798783,22.5940771 4.47091278,20.8842191 4.47091278,18.7818256 C4.47091278,16.6395132 4.97655172,14.9196755 5.98782961,13.6223124 C6.99910751,12.3249493 8.49606491,11.6762677 10.4787018,11.6762677 C12.4081136,11.6762677 13.8684787,12.3216227 14.8597972,13.6123327 C15.8511156,14.9030426 16.3467748,16.6129006 16.3467748,18.7419067 C16.3467748,20.9108316 15.8677485,22.6439757 14.9096957,23.9413387 C13.951643,25.2387018 12.4946045,25.8873834 10.5385801,25.8873834 Z M28.3304178,29.0609331 L28.3304178,17.5443408 C28.3304178,15.7346856 28.7761785,14.3408519 29.6676998,13.3628398 C30.5592211,12.3848276 31.7301744,11.8958215 33.1805598,11.8958215 C34.0055497,11.8958215 34.803927,12.0288844 35.5756917,12.2950101 L35.5756917,12.2950101 L35.5756917,8.36300203 C34.8571521,8.16340771 34.1652252,8.06361055 33.4999108,8.06361055 C31.4906613,8.06361055 29.7475375,9.20129817 28.2705396,11.4766734 L28.2705396,11.4766734 L28.2705396,8.58255578 L23.5201947,8.58255578 L23.6000325,9.44081136 C23.6532576,10.0129817 23.7064828,10.7248682 23.7597079,11.5764706 C23.8129331,12.428073 23.8395456,13.1333063 23.8395456,13.6921704 L23.8395456,13.6921704 L23.8395456,29.0609331 L28.3304178,29.0609331 Z" id="ar" fill="#FFFFFF"></path>
                    <path d="M49.2958053,29.0609331 L60.2535335,0 L55.4033915,0 C50.4667586,13.7720081 47.6857444,21.5096146 47.0603489,23.2128195 C45.9426207,20.1789858 44.3425396,15.6980933 42.2601055,9.77014199 C40.1776714,3.84219067 39.0300041,0.585476673 38.8171034,0 L38.8171034,0 L33.6476105,0 L44.665217,29.0609331 L49.2958053,29.0609331 Z M64.9919026,3.99188641 L64.9919026,0 L60.6407465,0 L60.6407465,3.99188641 L64.9919026,3.99188641 Z M64.9919026,29.0609331 L64.9919026,8.58255578 L60.620787,8.58255578 L60.620787,29.0609331 L64.9919026,29.0609331 Z M75.4985477,29.52 C76.4166815,29.52 77.29157,29.4102231 78.123213,29.1906694 C78.954856,28.9711156 79.7366004,28.6318053 80.4684462,28.1727383 C81.2002921,27.7136714 81.7824422,27.0683164 82.2148966,26.2366734 C82.6473509,25.4050304 82.8635781,24.4303448 82.8635781,23.3126166 C82.8635781,22.5541582 82.7671075,21.8821907 82.5741663,21.296714 C82.3812252,20.7112373 82.1383854,20.2189047 81.8456471,19.819716 C81.5529087,19.4205274 81.1437404,19.0479513 80.618142,18.7019878 C80.0925436,18.3560243 79.5835781,18.0732657 79.0912454,17.853712 C78.5989128,17.6341582 77.9668641,17.3913185 77.1950994,17.1251927 C77.1152617,17.0985801 76.7726247,16.9788235 76.1671886,16.7659229 C75.5617525,16.5530223 75.2324219,16.4399189 75.1791968,16.4266126 C73.7554239,15.9209736 72.8339635,15.5084787 72.4148154,15.1891278 C71.9956673,14.8697769 71.7860933,14.3907505 71.7860933,13.7520487 C71.7860933,12.3415822 72.9636998,11.6363489 75.3189128,11.6363489 C76.2237404,11.6363489 77.1917728,11.7893712 78.2230101,12.0954158 C79.2542475,12.4014604 80.1224828,12.7407708 80.827716,13.1133469 L80.827716,13.1133469 L82.0252819,9.99967546 C81.1470669,9.42750507 80.0825639,8.96843813 78.8317728,8.62247465 C77.5809817,8.27651116 76.2636592,8.10352941 74.8798053,8.10352941 C73.89514,8.10352941 72.9703529,8.21330629 72.1054442,8.43286004 C71.2405355,8.65241379 70.4488114,8.98507099 69.7302718,9.43083164 C69.0117323,9.87659229 68.446215,10.4820284 68.0337201,11.24714 C67.6212252,12.0122515 67.4149777,12.9004462 67.4149777,13.9117241 C67.4149777,14.7899391 67.544714,15.5483976 67.8041866,16.1870994 C68.0636592,16.8258012 68.4661744,17.3647059 69.0117323,17.8038134 C69.5572901,18.2429209 70.1161542,18.6021907 70.6883245,18.8816227 C71.2604949,19.1610548 71.9989939,19.4537931 72.9038215,19.7598377 L72.9038215,19.7598377 L74.819927,20.418499 C76.4166815,20.9640568 77.4612252,21.4197972 77.9535578,21.7857201 C78.4458905,22.151643 78.6920568,22.6672617 78.6920568,23.3325761 C78.6920568,25.0756998 77.5077972,25.9472617 75.1392779,25.9472617 C73.9550183,25.9472617 72.744146,25.7277079 71.5066613,25.2886004 C70.2691765,24.8494929 69.2445923,24.3238945 68.4329087,23.7118053 L68.4329087,23.7118053 L67.2752617,26.9851521 C68.1002515,27.6371602 69.231286,28.2226369 70.6683651,28.7415822 C72.1054442,29.2605274 73.7155051,29.52 75.4985477,29.52 Z M94.3482353,29.52 C96.0381339,29.52 97.5650304,29.240568 98.9289249,28.6817039 C100.292819,28.1228398 101.403895,27.3544016 102.26215,26.3763895 C103.120406,25.3983773 103.779067,24.2706694 104.238134,22.9932657 C104.697201,21.7158621 104.926734,20.3386613 104.926734,18.8616633 C104.926734,17.3048276 104.703854,15.8777282 104.258093,14.5803651 C103.812333,13.283002 103.163651,12.1453144 102.312049,11.1673022 C101.460446,10.1892901 100.356024,9.42750507 98.998783,8.88194726 C97.6415416,8.33638945 96.0980122,8.06361055 94.3681947,8.06361055 C92.1061258,8.06361055 90.153428,8.54263692 88.5101014,9.50068966 C86.8667748,10.4587424 85.6459229,11.7394726 84.8475456,13.3428803 C84.0491684,14.946288 83.6499797,16.7725761 83.6499797,18.8217444 C83.6499797,20.325355 83.8795132,21.7191886 84.3385801,23.0032454 C84.7976471,24.2873022 85.4629615,25.4150101 86.3345233,26.3863692 C87.2060852,27.3577282 88.3304665,28.1228398 89.7076673,28.6817039 C91.0848682,29.240568 92.6317241,29.52 94.3482353,29.52 Z M94.3282759,25.8873834 C92.3456389,25.8873834 90.8486815,25.2287221 89.8374037,23.9113996 C88.8261258,22.5940771 88.3204868,20.8908722 88.3204868,18.801785 C88.3204868,16.6860852 88.8327789,14.969574 89.8573631,13.6522515 C90.8819473,12.334929 92.3655984,11.6762677 94.3083164,11.6762677 C96.2510345,11.6762677 97.7280325,12.334929 98.7393103,13.6522515 C99.7505882,14.969574 100.256227,16.6860852 100.256227,18.801785 C100.256227,20.8908722 99.760568,22.5940771 98.7692495,23.9113996 C97.777931,25.2287221 96.2976065,25.8873834 94.3282759,25.8873834 Z M111.780803,29.0609331 L111.780803,17.5443408 C111.780803,15.7346856 112.226564,14.3408519 113.118085,13.3628398 C114.009606,12.3848276 115.18056,11.8958215 116.630945,11.8958215 C117.455935,11.8958215 118.254312,12.0288844 119.026077,12.2950101 L119.026077,12.2950101 L119.026077,8.36300203 C118.307538,8.16340771 117.615611,8.06361055 116.950296,8.06361055 C114.941047,8.06361055 113.197923,9.20129817 111.720925,11.4766734 L111.720925,11.4766734 L111.720925,8.58255578 L106.97058,8.58255578 L107.050418,9.44081136 C107.103643,10.0129817 107.156868,10.7248682 107.210093,11.5764706 C107.263318,12.428073 107.289931,13.1333063 107.289931,13.6921704 L107.289931,13.6921704 L107.289931,29.0609331 L111.780803,29.0609331 Z" id="Visor" fill="#181922"></path>
                </g>
            </g>
        </g>
    </g>
</svg>