<?xml version="1.0" encoding="UTF-8"?>
<svg width="140px" height="140px" viewBox="0 0 140 140" version="1.1" xmlns="http://www.w3.org/2000/svg" xmlns:xlink="http://www.w3.org/1999/xlink">
    <title>Group 32</title>
    <g id="Page-1" stroke="none" stroke-width="1" fill="none" fill-rule="evenodd">
        <g id="Onepager" transform="translate(-870.000000, -7587.000000)">
            <g id="Group-32" transform="translate(870.000000, 7587.000000)">
                <rect id="Rectangle" fill="#007DFE" opacity="0.3" x="0" y="0" width="140" height="140" rx="50"></rect>
                <rect id="Rectangle" fill="#007DFE" x="10" y="10" width="120" height="120" rx="40"></rect>
                <g id="Group-3" transform="translate(40.000000, 43.000000)">
                    <polyline id="Path" stroke="#FFFFFF" stroke-width="3" stroke-linecap="round" stroke-linejoin="round" points="20 12 6 12 6 48 54 48 54 12 40 12"></polyline>
                    <path d="M0,50 L0,48 L60,48 L60,50 C60,52.20914 58.20914,54 56,54 L4,54 C1.79086,54 0,52.20914 0,50 Z" id="Path" stroke="#FFFFFF" stroke-width="3" stroke-linecap="round" stroke-linejoin="round"></path>
                    <rect id="Rectangle" stroke="#FFFFFF" stroke-width="3" stroke-linecap="round" stroke-linejoin="round" x="20" y="0" width="20" height="38"></rect>
                    <line x1="28" y1="6" x2="32" y2="6" id="Path" stroke="#FFFFFF" stroke-width="3" stroke-linecap="round" stroke-linejoin="round"></line>
                    <circle id="Oval" fill="#FFFFFF" fill-rule="nonzero" cx="30" cy="32" r="2"></circle>
                    <line x1="40" y1="26" x2="20" y2="26" id="Path" stroke="#FFFFFF" stroke-width="3" stroke-linecap="round" stroke-linejoin="round"></line>
                </g>
            </g>
        </g>
    </g>
</svg>